<svg width="23" height="16" viewBox="0 0 23 16" fill="none" xmlns="http://www.w3.org/2000/svg">
<path fill-rule="evenodd" clip-rule="evenodd" d="M20.4899 8.42291C20.5299 8.43275 20.5674 8.45093 20.6 8.47625C20.6326 8.50158 20.6594 8.53349 20.6789 8.56991L20.6803 8.57274C20.6865 8.59286 20.6888 8.61394 20.6874 8.63493C20.6865 8.65263 20.6837 8.67017 20.6789 8.68723C20.6753 8.70356 20.6706 8.71961 20.6648 8.73529C20.6592 8.74942 20.6535 8.76356 20.6465 8.77911C20.6394 8.79183 20.6323 8.80596 20.6239 8.8201C20.6168 8.83282 20.6084 8.84695 20.5999 8.85968C20.5914 8.8724 20.583 8.88512 20.5731 8.89784C20.5646 8.91056 20.5562 8.92187 20.5463 8.93459C20.5364 8.9459 20.5265 8.95862 20.5167 8.96993C20.5068 8.98124 20.4969 8.99396 20.4856 9.00527C20.4758 9.01657 20.4659 9.02788 20.4546 9.03919C20.4433 9.04909 20.4334 9.06039 20.4222 9.0717C20.4109 9.08301 20.3996 9.0929 20.3883 9.10421C20.377 9.11411 20.3657 9.12541 20.353 9.13531C20.3417 9.1452 20.3305 9.15651 20.3178 9.16641C20.3065 9.1763 20.2952 9.18619 20.2825 9.1975L20.274 9.20316C20.2656 9.21164 20.2557 9.2187 20.2458 9.22719C20.2331 9.23708 20.2204 9.24556 20.2077 9.25545L20.1696 9.28514C20.1569 9.29362 20.1442 9.30351 20.1315 9.31341C20.1189 9.32189 20.1048 9.33178 20.0921 9.34026C20.0779 9.35016 20.0653 9.35864 20.0511 9.36712C20.0384 9.37702 20.0243 9.3855 20.0116 9.39398C19.9975 9.40387 19.9834 9.41235 19.9693 9.42083C19.9566 9.42931 19.9425 9.4378 19.9284 9.44628L19.8861 9.47172L19.8438 9.49716C19.8283 9.50565 19.8141 9.51413 19.8 9.52119C19.7859 9.52967 19.7704 9.53816 19.7563 9.54664C19.7408 9.55371 19.7267 9.56219 19.7112 9.56925C19.6971 9.57773 19.6815 9.5848 19.666 9.59328C19.6519 9.60035 19.6364 9.60883 19.6209 9.6159C19.6063 9.62428 19.5912 9.63183 19.5757 9.63851C19.5602 9.647 19.5447 9.65406 19.5292 9.66113C19.5137 9.6682 19.4982 9.67526 19.4826 9.68375C19.4671 9.69081 19.4502 9.69788 19.4347 9.70495C19.4192 9.71202 19.4036 9.71908 19.3867 9.72615C19.3712 9.73322 19.3543 9.73887 19.3387 9.74594C19.3218 9.75301 19.3063 9.76008 19.2894 9.76714C19.2739 9.7728 19.2569 9.77987 19.24 9.78693C19.2245 9.79259 19.2076 9.79966 19.1906 9.80531C19.1737 9.81238 19.1568 9.81944 19.1398 9.8251C19.1229 9.83075 19.106 9.83782 19.0891 9.84347C19.0721 9.85054 19.0552 9.85619 19.0369 9.86185C19.0199 9.8675 19.003 9.87316 18.9861 9.88022C18.9677 9.88588 18.9508 9.89153 18.9325 9.89719C18.9155 9.90284 18.8972 9.90849 18.8789 9.91415C18.8619 9.9198 18.8436 9.92546 18.8253 9.9297C18.8069 9.93535 18.7886 9.941 18.7717 9.94666C18.7533 9.9509 18.735 9.95655 18.7152 9.96079C18.6969 9.96645 18.6785 9.97069 18.6602 9.97634C18.6405 9.98058 18.6221 9.98624 18.6038 9.99048C18.584 9.99472 18.5657 9.99896 18.5459 10.0046C18.5262 10.0089 18.5064 10.0131 18.4881 10.0173C18.4684 10.0216 18.4486 10.0258 18.4289 10.0286C18.4077 10.0329 18.3879 10.0371 18.3682 10.0399C18.3484 10.0442 18.3273 10.0484 18.3075 10.0513C18.2864 10.0541 18.2652 10.0583 18.2441 10.0612L18.1806 10.0696C18.1594 10.0725 18.1383 10.0753 18.1157 10.0767C18.0931 10.0795 18.072 10.0824 18.0494 10.0838C18.0268 10.0852 18.0028 10.0866 17.9803 10.088C17.9633 10.0894 17.945 10.0908 17.9267 10.0908L17.9097 10.0922C17.8843 10.0922 17.8604 10.0922 17.8378 10.0937C17.811 10.0937 17.7856 10.0922 17.7602 10.0922C17.732 10.0908 17.7052 10.0894 17.6798 10.0866C17.6487 10.0852 17.6205 10.0809 17.5937 10.0781C17.5571 10.0725 17.526 10.0668 17.4964 10.0597C17.4546 10.0505 17.4136 10.0382 17.3737 10.023C17.3428 10.0115 17.3134 9.99632 17.2862 9.97776C17.2292 9.94035 17.1704 9.90591 17.1099 9.87457C17.0516 9.84459 16.9918 9.81769 16.9307 9.794C16.887 9.77562 16.8404 9.75866 16.7925 9.74311C16.753 9.73039 16.7135 9.71767 16.6712 9.70777C16.6359 9.69788 16.5992 9.68799 16.5625 9.6795C16.5287 9.67244 16.4948 9.66537 16.4596 9.6583C16.4285 9.65265 16.3961 9.64699 16.3636 9.64134C16.334 9.6371 16.303 9.63286 16.2719 9.62862C16.2423 9.62438 16.2127 9.62155 16.1831 9.61731C16.1563 9.61448 16.1266 9.61166 16.0984 9.61024L16.0829 9.60883L16.0166 9.60317L15.9334 9.59752L15.8515 9.59187L15.7683 9.58621L15.6865 9.57915L15.6033 9.57349L15.5215 9.56784L15.4382 9.56077L15.3564 9.55512L15.2746 9.54946L15.1914 9.54381L15.1095 9.53674H15.0983C15.0743 9.53533 15.0517 9.53391 15.0277 9.5325C15.0023 9.53109 14.9769 9.53109 14.9501 9.52967C14.9262 9.52967 14.9008 9.52967 14.8754 9.53109C14.8514 9.53109 14.8274 9.53109 14.8034 9.5325C14.7809 9.53391 14.7569 9.53391 14.7329 9.53674L14.6652 9.54098C14.6426 9.54239 14.62 9.54522 14.5989 9.54805C14.5763 9.54946 14.5551 9.55229 14.5326 9.55512L14.4691 9.5636C14.4479 9.56642 14.4282 9.56925 14.407 9.57349C14.3859 9.57632 14.3661 9.57914 14.345 9.58339C14.3252 9.58621 14.3055 9.59045 14.2843 9.59469C14.2645 9.59893 14.2448 9.60176 14.225 9.606L14.1658 9.61872C14.1475 9.62296 14.1277 9.6272 14.108 9.63286C14.0896 9.6371 14.0713 9.64134 14.0515 9.64699C14.0332 9.65123 14.0149 9.65547 13.9951 9.66113C13.9768 9.66537 13.9584 9.67102 13.9401 9.67668C13.9217 9.68092 13.9034 9.68657 13.8851 9.69222C13.8681 9.69647 13.8498 9.70212 13.8315 9.70777C13.8131 9.71343 13.7962 9.71908 13.7779 9.72474C13.7609 9.73039 13.7426 9.73604 13.7257 9.7417C13.7087 9.74877 13.6904 9.75442 13.6735 9.76007C13.6565 9.76573 13.6396 9.7728 13.6227 9.77845C13.6058 9.7841 13.5888 9.79117 13.5719 9.79683C13.555 9.80389 13.538 9.80955 13.5211 9.81661C13.5042 9.82368 13.4887 9.82934 13.4717 9.8364C13.4548 9.84347 13.4393 9.84912 13.4224 9.85619C13.4068 9.86326 13.3899 9.87033 13.3744 9.87739C13.3589 9.88446 13.342 9.89153 13.3264 9.8986L13.2799 9.9198C13.2635 9.92648 13.2475 9.93403 13.2319 9.94242C13.2178 9.94948 13.2023 9.95655 13.1868 9.96362C13.1713 9.9721 13.1557 9.97917 13.1416 9.98765C13.1261 9.99472 13.1106 10.0032 13.0965 10.0103C13.081 10.0187 13.0669 10.0258 13.0514 10.0343C13.0372 10.0428 13.0217 10.0513 13.0076 10.0583L12.9653 10.0838C12.9512 10.0922 12.9357 10.1007 12.923 10.1092C12.9075 10.1177 12.8948 10.1262 12.8807 10.1347C12.8665 10.1431 12.8524 10.1516 12.8397 10.1601C12.8256 10.17 12.8115 10.1785 12.7988 10.187C12.7847 10.1969 12.772 10.2053 12.7579 10.2152C12.7452 10.2237 12.7325 10.2336 12.7198 10.2421C12.7057 10.252 12.693 10.2619 12.6803 10.2704L12.6423 10.3C12.6296 10.3099 12.6183 10.3198 12.6056 10.3297C12.5929 10.3396 12.5816 10.3495 12.5689 10.3594C12.5576 10.3693 12.5449 10.3806 12.5336 10.3905C12.5223 10.4004 12.5111 10.4117 12.4998 10.4216C12.4885 10.4329 12.4772 10.4428 12.4659 10.4541C12.4546 10.4654 12.4433 10.4753 12.4335 10.4866C12.4222 10.4979 12.4109 10.5092 12.401 10.5205C12.3912 10.5319 12.3799 10.5432 12.37 10.5559C12.3598 10.567 12.3504 10.5788 12.3418 10.5912C12.3316 10.6029 12.3222 10.6151 12.3136 10.628C12.309 10.6329 12.3047 10.6381 12.3009 10.6435L12.2853 10.6647L12.2585 10.7015L12.2317 10.7396L12.2049 10.7778L12.1781 10.8146L12.1513 10.8527L12.1245 10.8895L12.0977 10.9276L12.0709 10.9644L12.0441 11.0026L12.0173 11.0393L11.9905 11.0775L11.9637 11.1142L11.9369 11.1524L11.9101 11.1891L11.8819 11.2273L11.8636 11.2542L11.8565 11.2655C11.8466 11.2782 11.8382 11.2909 11.8297 11.3036C11.8212 11.3163 11.8128 11.3291 11.8057 11.3418C11.7973 11.3559 11.7888 11.3687 11.7817 11.3828C11.7733 11.3955 11.7662 11.4096 11.7578 11.4224L11.7366 11.4648L11.7154 11.5072C11.7098 11.5213 11.7027 11.5354 11.6971 11.5496C11.69 11.5651 11.6844 11.5793 11.6788 11.5948C11.6731 11.6104 11.6675 11.6245 11.6618 11.64C11.6562 11.6556 11.652 11.6711 11.6477 11.6867C11.6421 11.7037 11.6379 11.7192 11.6336 11.7348C11.6294 11.7517 11.6266 11.7687 11.6223 11.7856C11.6195 11.8026 11.6153 11.8196 11.6139 11.8365C11.6111 11.8535 11.6082 11.8719 11.6068 11.8888C11.604 11.9072 11.6026 11.9256 11.6012 11.944C11.6012 11.9637 11.5998 11.9835 11.5998 12.0019C11.5998 12.0217 11.6012 12.0415 11.6026 12.0627C11.604 12.0825 11.6054 12.1037 11.6082 12.1249C11.6111 12.1475 11.6139 12.1701 11.6181 12.1913L11.6209 12.204C11.6238 12.2199 11.6238 12.2362 11.6209 12.2521C11.6192 12.2691 11.6149 12.2858 11.6082 12.3016C11.6034 12.3165 11.5968 12.3307 11.5885 12.344C11.5815 12.3582 11.5735 12.3719 11.5645 12.385C11.5574 12.3963 11.5476 12.409 11.5377 12.4217C11.5292 12.433 11.5194 12.4457 11.5095 12.4571C11.4996 12.4684 11.4883 12.4797 11.4784 12.4924C11.4672 12.5023 11.4573 12.5136 11.446 12.5249H11.4446C11.4347 12.5348 11.422 12.5461 11.4107 12.556C11.3994 12.5673 11.3868 12.5772 11.3755 12.5871C11.3628 12.597 11.3515 12.6069 11.3388 12.6168C11.3261 12.6267 11.3134 12.6366 11.3007 12.645C11.288 12.6549 11.2739 12.6648 11.2612 12.6733C11.2485 12.6832 11.2344 12.6917 11.2217 12.7002C11.2076 12.7101 11.1935 12.7185 11.1794 12.727C11.1667 12.7355 11.1526 12.744 11.1385 12.7525C11.1244 12.761 11.1088 12.7694 11.0947 12.7779C11.0806 12.7864 11.0665 12.7935 11.051 12.8019C11.0369 12.8104 11.0214 12.8175 11.0073 12.826C10.9918 12.833 10.9762 12.8415 10.9621 12.8486C10.9466 12.8571 10.9311 12.8641 10.9156 12.8712C10.9001 12.8783 10.8845 12.8868 10.869 12.8938C10.8535 12.9009 10.838 12.908 10.8211 12.915C10.8056 12.9221 10.79 12.9292 10.7731 12.9362C10.7576 12.9433 10.7407 12.9489 10.7251 12.956C10.7082 12.9631 10.6913 12.9687 10.6744 12.9758C10.6588 12.9829 10.6419 12.9885 10.625 12.9956C10.6081 13.0012 10.5911 13.0083 10.5742 13.014C10.5573 13.0196 10.5389 13.0253 10.522 13.0323C10.5051 13.038 10.4881 13.0437 10.4698 13.0493C10.4529 13.055 10.4345 13.0606 10.4176 13.0663L10.3626 13.0832C10.3457 13.0889 10.3273 13.0931 10.309 13.0988C10.2907 13.1044 10.2723 13.1087 10.254 13.1143C10.2342 13.1186 10.2159 13.1242 10.1975 13.1285C10.1778 13.1341 10.1595 13.1384 10.1411 13.1426C10.1214 13.1468 10.1016 13.1525 10.0833 13.1567C10.0635 13.161 10.0438 13.1652 10.024 13.168L9.96478 13.1808C9.94362 13.185 9.92387 13.1878 9.90412 13.1921C9.88296 13.1949 9.86321 13.1991 9.84205 13.202C9.82089 13.2048 9.79973 13.2076 9.77857 13.2119C9.75741 13.2147 9.73625 13.2175 9.71509 13.2189C9.69252 13.2218 9.67136 13.2246 9.64879 13.226C9.62621 13.2288 9.60364 13.2302 9.58248 13.2331C9.5585 13.2345 9.53593 13.2359 9.51336 13.2373H9.50066C9.48091 13.2387 9.46116 13.2387 9.44141 13.2401C9.41743 13.2401 9.39204 13.2415 9.36947 13.2415C9.34267 13.2415 9.31727 13.2415 9.29329 13.2401C9.26649 13.2401 9.23968 13.2387 9.21429 13.2373C9.18467 13.2345 9.15645 13.2331 9.12965 13.2302C9.09861 13.2274 9.06899 13.2232 9.04077 13.2189C9.00551 13.2133 8.97306 13.2062 8.94061 13.1991C8.90042 13.1898 8.86085 13.178 8.82212 13.1638C8.73706 13.1409 8.6627 13.0889 8.61193 13.0168C8.60787 13.0093 8.60501 13.0012 8.60346 12.9928C8.59828 12.9729 8.59732 12.9522 8.60064 12.932C8.60288 12.9155 8.60715 12.8994 8.61334 12.8839C8.61898 12.8698 8.62604 12.8542 8.63309 12.8401C8.64014 12.8274 8.64861 12.8133 8.65707 12.8005C8.66554 12.7878 8.67541 12.7751 8.68387 12.7638L8.6867 12.7595C8.69516 12.7496 8.70362 12.7383 8.7135 12.727C8.72337 12.7157 8.73325 12.7044 8.74453 12.6931C8.75441 12.6818 8.76569 12.6719 8.77698 12.6606C8.78826 12.6493 8.79955 12.6394 8.81084 12.6281C8.82212 12.6182 8.83482 12.6083 8.84751 12.5984C8.8588 12.5885 8.8715 12.5786 8.88419 12.5687C8.89635 12.5581 8.90906 12.5482 8.92228 12.539C8.93498 12.5306 8.94767 12.5207 8.96037 12.5122C8.97448 12.5023 8.98717 12.4938 9.00128 12.4839C9.01397 12.4754 9.02808 12.4669 9.04219 12.4585C9.05488 12.45 9.06899 12.4401 9.0831 12.4316C9.0972 12.4231 9.11272 12.4161 9.12683 12.4076C9.14093 12.3991 9.15504 12.3906 9.17056 12.3821C9.18184 12.3765 9.19313 12.3708 9.20442 12.3638L9.21429 12.3581L9.25943 12.3355L9.30316 12.3115L9.34689 12.2874L9.39062 12.262L9.43435 12.238L9.47668 12.2125L9.519 12.1885L9.56273 12.163L9.60364 12.1376L9.64596 12.1107L9.68828 12.0853L9.72919 12.0584C9.7433 12.05 9.75599 12.0415 9.7701 12.033L9.81101 12.0061L9.85051 11.9793L9.89142 11.951L9.93092 11.9242L9.97041 11.8959L10.0085 11.8676L10.0466 11.8394C10.0593 11.8295 10.072 11.821 10.0847 11.8111L10.1228 11.7814C10.1355 11.7715 10.1482 11.7616 10.1594 11.7531C10.1721 11.7432 10.1848 11.7333 10.1975 11.722C10.2088 11.7121 10.2215 11.7022 10.2328 11.6923C10.2455 11.6825 10.2568 11.6726 10.2695 11.6627C10.2808 11.6514 10.2935 11.6415 10.3047 11.6316C10.316 11.6217 10.3287 11.6104 10.34 11.6005C10.3513 11.5892 10.3626 11.5793 10.3739 11.568C10.3852 11.5581 10.3964 11.5468 10.4077 11.5369C10.419 11.5256 10.4303 11.5157 10.4416 11.5044L10.4599 11.486L10.474 11.4718L10.5065 11.4379L10.5403 11.4054L10.5728 11.3729L10.6052 11.339L10.6377 11.3065L10.6715 11.2739L10.704 11.2414L10.7364 11.2075L10.7689 11.175L10.8013 11.1425L10.8352 11.1086L10.8676 11.0761L10.9001 11.0435L10.9325 11.011L10.965 10.9771L10.9791 10.9644L10.9988 10.9446C11.0087 10.9333 11.02 10.922 11.0298 10.9107C11.0411 10.8994 11.051 10.8881 11.0609 10.8768C11.0708 10.864 11.0806 10.8527 11.0905 10.84C11.099 10.8287 11.1088 10.816 11.1173 10.8047C11.1272 10.7919 11.1356 10.7792 11.1441 10.7665C11.1535 10.7544 11.162 10.7417 11.1695 10.7283C11.178 10.7142 11.1864 10.7015 11.1935 10.6873C11.2019 10.6732 11.209 10.6605 11.2161 10.6464C11.2231 10.6322 11.2302 10.6181 11.2358 10.6039C11.2424 10.5893 11.2481 10.5742 11.2527 10.5587C11.2592 10.5436 11.2644 10.528 11.2682 10.5121C11.2782 10.4793 11.2853 10.4457 11.2894 10.4117C11.2922 10.3933 11.2936 10.375 11.295 10.3566C11.295 10.3368 11.295 10.317 11.2936 10.2972C11.2928 10.2759 11.2905 10.2546 11.2866 10.2336C11.2826 10.2092 11.2769 10.1851 11.2697 10.1615C11.263 10.1389 11.255 10.1167 11.2457 10.0951C11.2429 10.0894 11.24 10.0838 11.2372 10.0767C11.2176 10.0356 11.193 9.99715 11.1639 9.96221C11.0892 9.86969 10.9947 9.79528 10.8874 9.74453C10.8363 9.71922 10.7835 9.6975 10.7294 9.67951C10.6913 9.66679 10.6518 9.65548 10.6109 9.64559C10.577 9.6371 10.5432 9.62862 10.5065 9.62297C10.4769 9.61732 10.4444 9.61166 10.4134 9.60742C10.3838 9.60318 10.3541 9.60036 10.3245 9.59753C10.2977 9.5947 10.2695 9.59187 10.2413 9.59046C10.2159 9.58905 10.1891 9.58763 10.1623 9.58622C10.1369 9.58481 10.1101 9.58481 10.0847 9.58481H10.0099C9.98594 9.58481 9.96196 9.58622 9.93798 9.58622C9.91682 9.58763 9.89707 9.58905 9.87591 9.58905L9.86744 9.59046L9.79691 9.59329L9.72779 9.59753L9.65725 9.60177L9.58813 9.6046L9.5176 9.60884L9.44847 9.61308L9.37794 9.61732L9.30741 9.62015L9.23829 9.62439L9.16775 9.62863L9.09863 9.63146L9.0281 9.6357L8.95897 9.63994L8.88844 9.64276L8.84612 9.64559L8.81932 9.647C8.79533 9.64842 8.77276 9.64983 8.74878 9.65124C8.72621 9.65266 8.70364 9.65407 8.68107 9.6569C8.6585 9.65831 8.63593 9.65973 8.61335 9.66255C8.59078 9.66397 8.56962 9.66679 8.54705 9.66821C8.52448 9.67103 8.50332 9.67245 8.48075 9.67527C8.45818 9.6781 8.43702 9.67952 8.41445 9.68234C8.39329 9.68517 8.37213 9.688 8.34956 9.69082L8.28608 9.69789C8.26491 9.70072 8.24376 9.70354 8.22259 9.70778L8.15911 9.71627C8.13795 9.71909 8.11679 9.72192 8.09704 9.72616L8.03497 9.73605L7.9729 9.74595L7.91084 9.75726L7.85017 9.76715L7.79092 9.77846L7.73027 9.79118L7.67102 9.80249L7.61177 9.81521L7.55393 9.82793L7.49468 9.84065L7.43684 9.85338L7.379 9.86751L7.32258 9.88023L7.26474 9.89437L7.20831 9.9085L7.15189 9.92264L7.09546 9.93819L7.04044 9.95232L6.98402 9.96787L6.929 9.98342L6.87398 9.99897L6.85846 10.0032L6.81896 10.0145C6.80062 10.0188 6.78229 10.0244 6.76395 10.0287C6.7442 10.0343 6.72586 10.0385 6.70752 10.0428C6.68777 10.047 6.66802 10.0527 6.64968 10.0569L6.59043 10.0696C6.57068 10.0739 6.55093 10.0767 6.53118 10.0809C6.51143 10.0852 6.49168 10.0894 6.47052 10.0923C6.45077 10.0965 6.42961 10.0993 6.40986 10.1022C6.3887 10.1064 6.36754 10.1092 6.34638 10.112L6.2829 10.1205C6.26174 10.1234 6.23917 10.1262 6.21801 10.129C6.19544 10.1304 6.17287 10.1332 6.15171 10.1347C6.12913 10.1375 6.10515 10.1389 6.08258 10.1403C6.06001 10.1417 6.03603 10.1431 6.01346 10.1446C5.98948 10.146 5.9655 10.146 5.94152 10.1474H5.79214C5.76675 10.146 5.73994 10.1446 5.71455 10.1446C5.68634 10.1431 5.65953 10.1403 5.63273 10.1389C5.60311 10.1361 5.5749 10.1332 5.54668 10.1304C5.51565 10.1262 5.48603 10.1219 5.4564 10.1177L5.35906 10.1007C5.32238 10.0923 5.28711 10.0852 5.25326 10.0753C5.21173 10.0647 5.17077 10.0519 5.13053 10.0371C5.07287 10.0173 5.01675 9.99322 4.96266 9.96504C4.87514 9.92068 4.79705 9.85971 4.73273 9.78553C4.71639 9.76509 4.70176 9.74334 4.689 9.7205L4.68758 9.71909V9.71768L4.67912 9.70496C4.66671 9.67846 4.65633 9.65105 4.64808 9.62297C4.64295 9.60061 4.63919 9.57795 4.6368 9.55512C4.63539 9.53489 4.63539 9.51458 4.6368 9.49434C4.63821 9.48162 4.63962 9.4689 4.64103 9.45759C4.64244 9.45052 4.64244 9.44487 4.64385 9.4378C4.64809 9.41943 4.65232 9.40247 4.65655 9.3855C4.66181 9.36871 4.66793 9.3522 4.67489 9.33603C4.68062 9.31967 4.68721 9.30363 4.69464 9.28797C4.70169 9.27243 4.71015 9.25829 4.71862 9.24274C4.72567 9.23002 4.73273 9.2173 4.74119 9.20458L4.74401 9.19892C4.75388 9.18479 4.76235 9.17065 4.77222 9.15652C4.7821 9.14238 4.79197 9.12966 4.80185 9.11552C4.81313 9.10139 4.82301 9.08867 4.8343 9.07595C4.84433 9.06213 4.85517 9.04892 4.86674 9.03637C4.87803 9.02365 4.89072 9.01093 4.90201 8.9982C4.91329 8.98548 4.92599 8.97417 4.93868 8.96145C4.95138 8.94873 4.96408 8.93742 4.97677 8.9247L5.01486 8.89078C5.02897 8.87805 5.04167 8.86675 5.05577 8.85544C5.06988 8.84413 5.08258 8.83282 5.09668 8.82151L5.1122 8.81021C5.12207 8.80314 5.13054 8.79607 5.14041 8.789C5.15452 8.77911 5.17004 8.7678 5.18414 8.75791C5.19966 8.7466 5.21518 8.7367 5.22929 8.72681C5.2448 8.71692 5.26032 8.70561 5.27584 8.69571C5.29136 8.68582 5.30687 8.67592 5.3238 8.66603C5.33932 8.65613 5.35483 8.64624 5.37176 8.63634C5.38728 8.62786 5.40421 8.61797 5.42114 8.60807C5.43665 8.59959 5.45358 8.5897 5.47051 8.58122C5.48744 8.57132 5.50437 8.56284 5.5227 8.55295C5.53963 8.54447 5.55656 8.53599 5.5749 8.52609C5.59183 8.51761 5.61017 8.50913 5.6271 8.50065L5.68211 8.4752C5.70045 8.46672 5.71879 8.45966 5.73713 8.45118C5.75547 8.4427 5.77522 8.43563 5.79356 8.42715C5.81331 8.42008 5.83165 8.4116 5.85139 8.40453C5.87114 8.39605 5.89089 8.38898 5.91065 8.38192L5.9699 8.36071C5.98965 8.35364 6.0108 8.34658 6.03055 8.33951L6.08134 8.32255L6.09263 8.31972C6.11379 8.31265 6.13495 8.30558 6.15611 8.29993C6.17727 8.29286 6.19843 8.28721 6.21959 8.28156C6.24216 8.2759 6.26473 8.26883 6.28589 8.26318L6.35361 8.24622C6.37618 8.24198 6.39875 8.23632 6.42132 8.23067C6.4453 8.22643 6.46929 8.22078 6.49186 8.21653C6.51584 8.21229 6.53982 8.20664 6.5638 8.2024C6.58919 8.19816 6.61318 8.19392 6.63716 8.18968C6.66255 8.18685 6.68794 8.18261 6.71334 8.17978C6.73873 8.17554 6.76553 8.17272 6.79092 8.16989C6.81756 8.16567 6.8444 8.16283 6.87133 8.16141C6.89813 8.15858 6.92635 8.15575 6.95315 8.15434C6.98137 8.15151 7.00958 8.1501 7.0392 8.14869C7.06742 8.14727 7.09704 8.14727 7.12667 8.14586H7.21836C7.2508 8.14586 7.28325 8.14727 7.3157 8.14869C7.34956 8.1501 7.38341 8.15151 7.41868 8.15434C7.45535 8.15717 7.49203 8.16141 7.52871 8.16565C7.56821 8.1713 7.60912 8.17696 7.65003 8.18544C7.66555 8.18826 7.68247 8.19109 7.6994 8.19533C7.72903 8.20099 7.76006 8.20805 7.78969 8.21653C7.84904 8.23196 7.90745 8.25084 7.96461 8.27307L7.98013 8.28014C8.06195 8.31407 8.1353 8.35788 8.21007 8.39181C8.24816 8.41018 8.28625 8.42856 8.32433 8.44552C8.40192 8.47944 8.48232 8.51195 8.56273 8.54022C8.6248 8.56284 8.68687 8.58404 8.75035 8.60242C8.80396 8.61938 8.85897 8.63493 8.91258 8.64906C8.96195 8.66179 9.01132 8.67451 9.0607 8.6844C9.10584 8.69571 9.15098 8.70419 9.19612 8.71267L9.22856 8.71974C9.2596 8.72539 9.29064 8.72963 9.32308 8.73529L9.44158 8.75225C9.47967 8.7579 9.51634 8.76214 9.55443 8.76638C9.59111 8.76921 9.62778 8.77345 9.66305 8.77628C9.6955 8.77911 9.72935 8.78193 9.7618 8.78476H9.76885L9.87465 8.79324L9.97904 8.80172L10.0848 8.8102L10.1906 8.81869L10.2964 8.82575L10.3021 8.82717L10.4008 8.83423L10.5052 8.84271L10.611 8.84978L10.7154 8.85826L10.8198 8.86674L10.841 8.86816C10.8678 8.86816 10.8932 8.86957 10.92 8.87098C10.9524 8.8724 10.9849 8.87381 11.0173 8.87381C11.0469 8.87381 11.0765 8.87381 11.1062 8.87098H11.1076C11.1372 8.86957 11.1654 8.86957 11.1936 8.86816C11.2106 8.86816 11.2261 8.86674 11.2416 8.86533L11.2783 8.8625L11.3587 8.85402L11.3742 8.85261C11.3954 8.84978 11.4165 8.84837 11.4377 8.84554C11.4631 8.84271 11.4885 8.83847 11.5139 8.83423C11.5393 8.83141 11.5632 8.82717 11.5886 8.82292C11.6126 8.81868 11.638 8.81444 11.662 8.8102C11.686 8.80596 11.7085 8.80031 11.7325 8.79607C11.7565 8.79041 11.7791 8.78617 11.803 8.78052C11.8256 8.77487 11.8482 8.77063 11.8708 8.76497C11.8933 8.75932 11.9145 8.75366 11.9371 8.74801C11.9596 8.74236 11.9808 8.73529 12.0034 8.72963C12.0245 8.72398 12.0457 8.71691 12.0668 8.71126C12.088 8.70419 12.1092 8.69854 12.1303 8.69147C12.1515 8.6844 12.1712 8.67875 12.1924 8.67168C12.2122 8.66461 12.2333 8.65755 12.2531 8.65048C12.2742 8.64341 12.294 8.63634 12.3137 8.62927C12.3335 8.62221 12.3532 8.61514 12.373 8.60666L12.4096 8.59252L12.4308 8.58404C12.4506 8.57697 12.4689 8.56991 12.4886 8.56143C12.507 8.55436 12.5267 8.54588 12.5451 8.5374C12.5634 8.53033 12.5832 8.52185 12.6015 8.51337C12.6198 8.5063 12.6382 8.49782 12.6565 8.48934C12.6749 8.48086 12.6932 8.47238 12.7101 8.46389C12.7285 8.45541 12.7468 8.44693 12.7637 8.43845C12.7821 8.42997 12.799 8.42149 12.8173 8.41159C12.8343 8.40311 12.8512 8.39463 12.8695 8.38474C12.8865 8.37626 12.9034 8.36778 12.9203 8.35788C12.9372 8.3494 12.9542 8.33951 12.9711 8.32961C12.9866 8.32113 13.0035 8.31124 13.0205 8.30134C13.036 8.29286 13.0529 8.28297 13.0684 8.27307C13.084 8.26318 13.1009 8.25328 13.1164 8.24339L13.163 8.2137C13.1785 8.2024 13.194 8.1925 13.2095 8.18261C13.2236 8.17271 13.2391 8.1614 13.2532 8.15151C13.2688 8.1402 13.2829 8.13031 13.2984 8.119C13.3125 8.10911 13.3266 8.0978 13.3407 8.08649L13.3463 8.08225C13.359 8.07377 13.3717 8.06387 13.3844 8.05398C13.3985 8.04267 13.4126 8.03278 13.4268 8.02147C13.4409 8.01016 13.4536 7.99885 13.4677 7.98613C13.4804 7.97482 13.4945 7.96352 13.5072 7.95221C13.5199 7.9409 13.5326 7.92818 13.5453 7.91687C13.5579 7.90415 13.5706 7.89284 13.5833 7.88012C13.596 7.86881 13.6073 7.85609 13.62 7.84337C13.6313 7.83065 13.644 7.81934 13.6553 7.80662C13.668 7.7939 13.6793 7.78117 13.6906 7.76845C13.7018 7.75573 13.7131 7.74301 13.7258 7.73029L13.7343 7.72039C13.7427 7.7105 13.7498 7.7006 13.7569 7.69071C13.7681 7.67657 13.778 7.66385 13.7879 7.64972C13.799 7.63666 13.8094 7.62298 13.8189 7.60873C13.8288 7.59459 13.8387 7.58187 13.8485 7.56773C13.8584 7.5536 13.8669 7.53946 13.8768 7.52533L13.9064 7.48434L13.9346 7.44193L13.9628 7.39952L13.991 7.35712L14.0207 7.31471L14.0446 7.28079L14.0489 7.27372L14.0771 7.23131L14.1067 7.18891L14.1349 7.1465L14.1631 7.10551L14.1913 7.0631L14.221 7.0207L14.2492 6.97829L14.2774 6.9373L14.307 6.89489L14.3352 6.85249L14.3493 6.83128L14.3634 6.81008C14.3733 6.79594 14.3832 6.78322 14.3931 6.76909C14.4015 6.75495 14.4114 6.74082 14.4199 6.72668C14.4298 6.71255 14.4396 6.697 14.4481 6.68286C14.4566 6.66873 14.4664 6.65459 14.4749 6.64046C14.4834 6.62491 14.4932 6.61077 14.5017 6.59664C14.5102 6.5825 14.5186 6.56695 14.5271 6.55282C14.5355 6.53727 14.5426 6.52314 14.5511 6.50759C14.5595 6.49204 14.568 6.47791 14.575 6.46236C14.5835 6.44681 14.5906 6.43267 14.5976 6.41713C14.6061 6.40158 14.6131 6.38603 14.6202 6.37048L14.6414 6.32383C14.6484 6.30828 14.6555 6.29132 14.6625 6.27577C14.6696 6.26023 14.6752 6.24468 14.6823 6.22772C14.6879 6.21217 14.695 6.19521 14.7006 6.17966C14.7062 6.16269 14.7119 6.14715 14.7175 6.13019C14.7232 6.11322 14.7288 6.09767 14.7345 6.08071C14.7401 6.06375 14.7457 6.04679 14.75 6.02983C14.7556 6.01286 14.7613 5.9959 14.7655 5.97894C14.7697 5.96198 14.774 5.9436 14.7796 5.92664C14.7838 5.90968 14.7881 5.8913 14.7909 5.87434C14.7951 5.85596 14.7993 5.839 14.8036 5.82063C14.8064 5.80225 14.8106 5.78529 14.8135 5.76691L14.8219 5.71179L14.8304 5.65666C14.8318 5.63687 14.8346 5.61849 14.836 5.60012C14.8388 5.58033 14.8403 5.56054 14.8417 5.54217L14.8459 5.4828C14.8459 5.46301 14.8473 5.44322 14.8473 5.42343V5.30193C14.8473 5.28253 14.8487 5.26316 14.8515 5.24397C14.853 5.2256 14.8558 5.20722 14.8586 5.18885C14.8614 5.17047 14.8656 5.1521 14.8699 5.13513C14.8741 5.11817 14.8798 5.0998 14.884 5.08283C14.8896 5.06729 14.8953 5.05032 14.9009 5.03336C14.908 5.01781 14.9136 5.00085 14.9207 4.9853L14.9418 4.93866C14.9489 4.92311 14.9573 4.90756 14.9644 4.89201C14.9729 4.87788 14.9813 4.86233 14.9898 4.84819C14.9968 4.83406 15.0053 4.82134 15.0124 4.8072L15.0152 4.80437C15.0236 4.78883 15.0335 4.77469 15.042 4.76056C15.0519 4.74642 15.0603 4.73229 15.0702 4.71815C15.0801 4.70543 15.0899 4.69129 15.0998 4.67716C15.1097 4.66302 15.121 4.6503 15.1309 4.63617C15.1407 4.62344 15.152 4.60931 15.1633 4.59659C15.1732 4.58387 15.1845 4.56973 15.1957 4.55701L15.2296 4.51885L15.2635 4.48068C15.2747 4.46796 15.2874 4.45524 15.2987 4.44251C15.3114 4.42979 15.3227 4.41707 15.3354 4.40576L15.358 4.38174L15.3721 4.36901C15.3836 4.35607 15.3958 4.3438 15.4088 4.33226C15.4215 4.32095 15.4342 4.30823 15.4483 4.29693C15.461 4.28562 15.4737 4.2729 15.4864 4.26159C15.5005 4.25028 15.5132 4.23897 15.5273 4.22766C15.54 4.21494 15.5541 4.20363 15.5668 4.19233L15.6091 4.1584C15.6233 4.14835 15.637 4.1375 15.65 4.12589C15.6655 4.11458 15.6796 4.10327 15.6937 4.09338C15.7078 4.08207 15.7219 4.07076 15.736 4.06087C15.7516 4.04956 15.7657 4.03967 15.7812 4.02836C15.7953 4.01847 15.8108 4.00716 15.8249 3.99726C15.8404 3.98596 15.856 3.97606 15.8701 3.96617C15.8856 3.95486 15.9011 3.94496 15.9166 3.93507L15.9632 3.90538C15.9787 3.89408 15.9942 3.88418 16.0097 3.87429C16.0266 3.86439 16.0422 3.8545 16.0577 3.84602C16.0746 3.83612 16.0901 3.82623 16.1056 3.81633C16.1226 3.80644 16.1395 3.79654 16.155 3.78806C16.1719 3.77817 16.1889 3.76827 16.2044 3.75979L16.2382 3.74142L16.2552 3.73152C16.2721 3.72163 16.289 3.71315 16.3074 3.70467C16.3243 3.69477 16.3412 3.68629 16.3582 3.67781C16.3765 3.66933 16.3934 3.65944 16.4118 3.65096C16.4287 3.64247 16.447 3.63399 16.4654 3.62551C16.4823 3.61703 16.5006 3.60855 16.519 3.60007C16.5373 3.59159 16.5557 3.58311 16.574 3.57604L16.629 3.5506C16.6488 3.54353 16.6671 3.53505 16.6854 3.52657C16.7052 3.5195 16.7235 3.51102 16.7419 3.50395C16.7616 3.49547 16.7814 3.4884 16.7997 3.48133C16.8194 3.47285 16.8392 3.46579 16.859 3.45872C16.8787 3.45024 16.8985 3.44317 16.9182 3.4361C16.938 3.42904 16.9577 3.42197 16.9789 3.4149C16.9986 3.40783 17.0184 3.40076 17.0395 3.3937C17.0593 3.38663 17.0804 3.38097 17.1016 3.37391C17.1227 3.36684 17.1425 3.36119 17.1637 3.35412C17.1848 3.34846 17.206 3.3414 17.2271 3.33574L17.2427 3.3315C17.2596 3.32585 17.2765 3.32161 17.292 3.31737C17.3146 3.3103 17.3358 3.30465 17.3583 3.29899L17.426 3.28203C17.4486 3.27638 17.4712 3.27214 17.4938 3.26648C17.5177 3.26224 17.5417 3.25659 17.5643 3.25235C17.5883 3.24669 17.6123 3.24245 17.6362 3.23821C17.6602 3.23397 17.6856 3.22973 17.7096 3.22549C17.735 3.22125 17.7604 3.21842 17.7858 3.21418C17.9606 3.19099 18.137 3.18107 18.3134 3.1845C18.7958 3.19722 19.1316 3.34705 19.2359 3.59441C19.346 3.85873 19.2063 4.23048 18.8522 4.61636C18.5869 4.8942 18.281 5.13011 17.945 5.31606L17.9253 5.32737L17.9027 5.3415L17.859 5.36553L17.8152 5.38956L17.7715 5.41501L17.7278 5.43904L17.6855 5.46306L17.6417 5.48851L17.598 5.51254L17.5557 5.53798L17.5119 5.56342L17.4696 5.58745L17.4273 5.6129L17.385 5.63834L17.3427 5.66379L17.3003 5.68923L17.258 5.71467L17.2157 5.74012L17.1748 5.76697L17.1339 5.79242L17.093 5.81927L17.0521 5.84613L17.0126 5.87299L16.9717 5.90126L16.9322 5.92811C16.9195 5.93801 16.9054 5.94649 16.8927 5.95638L16.8546 5.98465C16.8408 5.99326 16.8276 6.0027 16.8151 6.01292C16.8024 6.0214 16.7897 6.0313 16.777 6.04119L16.7389 6.06946L16.7008 6.09914L16.6641 6.12883L16.6274 6.1571L16.5908 6.1882L16.5541 6.21788L16.5174 6.24756L16.4821 6.27866L16.4469 6.30835L16.4116 6.33944L16.3763 6.37054L16.3411 6.40164L16.3058 6.43415L16.272 6.46524L16.2367 6.49634L16.2028 6.52885L16.169 6.55995L16.1351 6.59246L16.1097 6.61649L16.1013 6.62497L16.0688 6.65748L16.035 6.68999L16.0025 6.7225L15.9687 6.75501L15.9362 6.78752L15.9038 6.82144L15.8713 6.85395L15.8389 6.88788L15.8064 6.92039L15.7754 6.95431L15.7429 6.98824L15.7119 7.02216L15.6809 7.05609L15.6498 7.09143L15.6188 7.12535L15.5892 7.16069L15.5581 7.19461L15.5285 7.22995L15.4989 7.26529L15.4693 7.30063L15.4411 7.33738C15.4312 7.34868 15.4213 7.36141 15.4114 7.37271C15.4028 7.38556 15.3934 7.39783 15.3832 7.40946C15.3748 7.42219 15.3649 7.43349 15.3564 7.44622C15.3465 7.45894 15.3367 7.47166 15.3282 7.48297C15.3197 7.49569 15.3099 7.50841 15.3014 7.52113C15.2915 7.53385 15.2831 7.54657 15.2746 7.55788C15.2668 7.57103 15.2583 7.58377 15.2492 7.59605C15.2393 7.61018 15.2309 7.6229 15.2224 7.63562C15.2139 7.64835 15.2055 7.66107 15.1984 7.67379C15.19 7.68792 15.1815 7.70065 15.173 7.71337C15.166 7.7275 15.1575 7.74022 15.1505 7.75436C15.142 7.76708 15.1349 7.78121 15.1265 7.79394C15.1194 7.80807 15.1124 7.82221 15.1053 7.83493C15.0971 7.84847 15.0901 7.86266 15.0842 7.87733L15.063 7.91974C15.0559 7.93529 15.0503 7.94942 15.0447 7.96356C15.0376 7.97911 15.032 7.99324 15.0263 8.00879C15.0207 8.02434 15.015 8.03847 15.0094 8.05402C15.0037 8.06957 14.9995 8.08512 14.9953 8.10067C14.9897 8.11679 14.9855 8.13334 14.9826 8.15014C14.9784 8.1671 14.9741 8.18407 14.9713 8.19961C14.9685 8.21799 14.9657 8.23636 14.9642 8.25333C14.9628 8.2717 14.9614 8.29149 14.9614 8.30845C14.9614 8.32966 14.9628 8.35086 14.9642 8.36923C14.9657 8.38351 14.968 8.39767 14.9713 8.41164C14.9725 8.42072 14.9744 8.4297 14.9769 8.4385C14.9848 8.46736 14.9957 8.49531 15.0094 8.52189C15.0899 8.65687 15.2176 8.7571 15.3677 8.80318C15.4072 8.81731 15.4495 8.83003 15.4932 8.84275C15.5271 8.85123 15.561 8.85972 15.5976 8.86537C15.6287 8.87244 15.6597 8.87668 15.6922 8.88233C15.7218 8.88516 15.7514 8.8894 15.781 8.89223C15.8078 8.89505 15.836 8.89647 15.8643 8.89929C15.8897 8.90071 15.9165 8.90212 15.9433 8.90212C15.9686 8.90353 15.994 8.90353 16.0208 8.90353H16.0942C16.1182 8.90353 16.1422 8.90212 16.1661 8.90071L16.1915 8.89929L16.2367 8.89788L16.3072 8.89364L16.3763 8.89081L16.4469 8.88657L16.5174 8.88375L16.5879 8.8795L16.6585 8.87668L16.729 8.87244L16.7981 8.86961L16.8687 8.86537L16.9392 8.86254L17.0097 8.8583L17.0803 8.85547L17.1508 8.85265L17.1677 8.85123L17.2199 8.84841C17.2425 8.84699 17.2665 8.84558 17.289 8.84417C17.3116 8.84275 17.3342 8.83993 17.3568 8.83851C17.3793 8.8371 17.4019 8.83427 17.4245 8.83286C17.447 8.83003 17.4682 8.82862 17.4908 8.82579C17.5133 8.82438 17.5345 8.82155 17.5571 8.81872C17.5782 8.8159 17.5994 8.81448 17.622 8.81166L17.6854 8.80317C17.7066 8.80035 17.7292 8.79752 17.7503 8.79469C17.7715 8.79187 17.7912 8.78904 17.8124 8.78621C17.8336 8.78197 17.8547 8.77915 17.8759 8.77632C17.897 8.77349 17.9168 8.76925 17.938 8.76642L18 8.75653L18.0607 8.74522C18.0804 8.74239 18.1016 8.73815 18.1213 8.73391L18.182 8.72261L18.2412 8.7113L18.3019 8.69999L18.3612 8.68727L18.419 8.67455L18.4782 8.66182L18.5361 8.6491L18.5939 8.63497L18.6518 8.62224L18.7082 8.60811L18.766 8.59397L18.8224 8.57984L18.8789 8.5657L18.9339 8.55157L18.9903 8.53602L19.0467 8.52189L19.1018 8.50634L19.1286 8.49927L19.1568 8.49079C19.1751 8.48514 19.1935 8.4809 19.2132 8.47666C19.2315 8.471 19.2499 8.46676 19.2696 8.46252C19.288 8.45687 19.3077 8.45263 19.3261 8.44839L19.3853 8.43566L19.4446 8.42294C19.4643 8.4187 19.4841 8.41587 19.5038 8.41163C19.525 8.40881 19.5461 8.40457 19.5659 8.40174C19.587 8.3975 19.6068 8.39467 19.6279 8.39185L19.6914 8.38336C19.714 8.38054 19.7352 8.37771 19.7563 8.37488C19.7789 8.37347 19.8015 8.37064 19.824 8.36923C19.8466 8.3664 19.8692 8.36499 19.8918 8.36358C19.9157 8.36216 19.9397 8.36075 19.9623 8.36075C19.9877 8.35934 20.0117 8.35933 20.0356 8.35933H20.0878L20.1118 8.36075C20.1387 8.36075 20.1655 8.36217 20.1922 8.36499C20.221 8.36635 20.2498 8.36918 20.2783 8.37347C20.3105 8.37751 20.3425 8.38317 20.3742 8.39043C20.4136 8.39817 20.4522 8.40903 20.4899 8.42291Z" fill="url(#paint0_linear_1551_39)"/>
<path fill-rule="evenodd" clip-rule="evenodd" d="M15.4396 9.91559L15.0728 9.88874C14.9294 9.88017 14.7855 9.88348 14.6426 9.89863C14.699 10.3905 14.9783 10.8216 15.3112 10.9616C15.1434 10.6803 15.2167 10.31 15.4396 9.91559ZM22.9105 7.59747C22.0175 6.63489 19.6942 6.85257 17.849 7.78547C17.4482 7.99126 17.0692 8.23704 16.7177 8.51907L16.1746 8.54734C15.7147 8.56995 15.3775 8.46394 15.2943 8.27171C15.2836 8.24316 15.2774 8.21311 15.276 8.18265C15.3634 8.07523 15.4594 7.96922 15.5609 7.86462C16.8054 7.71682 18.016 7.35886 19.1412 6.80592C19.7168 6.50555 20.2599 6.14651 20.762 5.7345C20.9297 5.73737 21.097 5.75154 21.2628 5.7769C22.6255 5.99034 23.053 6.81158 22.9105 7.59747Z" fill="#00CCFF"/>
<path fill-rule="evenodd" clip-rule="evenodd" d="M13.1501 7.43631C13.2488 7.48876 13.3516 7.53273 13.4577 7.56777C13.501 7.52009 13.541 7.46957 13.5776 7.41652L14.1531 6.56843L14.1616 6.55288C13.2799 6.56136 12.7241 6.32814 12.8384 5.80091C12.4236 6.29139 12.2783 6.94442 13.1501 7.43631ZM21.0696 2.4043C21.6818 2.55554 22.0204 2.81704 22.0712 3.18454C22.2052 4.13441 20.8961 5.53376 18.9818 6.49069C17.9507 6.99299 16.8473 7.33019 15.7119 7.49003L16.3552 6.87233C16.7784 6.46525 17.3652 6.04827 18.0988 5.63553C18.1862 5.58606 18.2694 5.53376 18.3527 5.48146C18.5713 5.37969 18.7886 5.27368 18.9973 5.1606C21.2163 3.96337 21.2812 2.87782 21.0696 2.4043Z" fill="#00CCFF"/>
<path fill-rule="evenodd" clip-rule="evenodd" d="M2.36665 10.512C2.11273 10.813 1.97025 11.1791 2.14377 11.524C2.22876 11.6781 2.36074 11.801 2.52041 11.8746C2.65926 11.9414 2.80255 11.9985 2.94925 12.0456C4.03829 12.4103 6.24175 12.0074 7.96417 11.1282C8.57477 10.8104 9.14263 10.4162 9.65415 9.95504L8.867 9.99885C8.35886 10.0306 7.85487 10.1106 7.36182 10.2377C4.98485 11.3176 2.13107 11.5947 2.36665 10.512ZM9.73174 7.2157C10.8123 7.4249 11.0874 7.94506 10.9012 8.56134C10.88 8.55992 10.8574 8.55992 10.8363 8.55851L9.73456 8.46946C10.1211 7.81784 9.89396 7.33867 9.73174 7.2157Z" fill="#FEFEFE"/>
<path fill-rule="evenodd" clip-rule="evenodd" d="M7.53828 12.7764C8.06035 12.1618 8.6972 11.6552 9.41306 11.2852C9.80622 11.0879 10.2165 10.9271 10.6389 10.8046L10.7292 10.7141C10.8336 10.6095 10.9986 10.4074 10.9225 10.2392C10.8632 10.1063 10.6319 9.96359 10.1776 9.94238C9.57256 10.544 8.87948 11.0497 8.1223 11.4421C7.71232 11.65 7.2886 11.8294 6.85411 11.9792C6.84847 11.9891 6.84283 11.9976 6.83718 12.0061C5.82433 13.2754 6.07966 15.2161 7.82888 15.3306C6.64392 15.0083 6.7864 13.6245 7.53828 12.7764ZM13.7466 10.1078C13.8547 10.2498 13.9311 10.4133 13.9708 10.5874C14.0104 10.7615 14.0124 10.9421 13.9766 11.117C13.7142 10.8329 13.315 10.6661 12.8382 10.594C13.1124 10.3832 13.4193 10.2189 13.7466 10.1078Z" fill="#00CCFF"/>
<path fill-rule="evenodd" clip-rule="evenodd" d="M11.0087 7.48293C9.92816 6.31398 7.11388 6.57972 4.87939 7.70909C3.61684 8.34657 2.21182 9.58762 1.80978 10.6039C1.65178 10.9488 1.6137 11.24 1.68705 11.493C1.26103 11.2329 0.933753 10.587 0.985948 9.91413C1.03179 9.4666 1.18418 9.03663 1.43031 8.66037C1.52641 8.50468 1.63193 8.35504 1.7463 8.21229C2.31903 7.49283 3.17954 6.81435 4.22061 6.28006C5.80478 5.46589 7.6711 5.06587 9.01264 5.27648C10.6631 5.53515 11.1822 6.53024 11.0087 7.48293Z" fill="#FEFEFE"/>
<path fill-rule="evenodd" clip-rule="evenodd" d="M7.73876 6.02134L7.78532 6.01569C9.3836 5.84465 10.728 6.2475 11.0087 7.48288C10.5686 7.00654 9.84066 6.76907 8.98156 6.7295C8.96181 6.7295 8.94206 6.72808 8.92231 6.72808C8.90397 6.72667 8.88422 6.72667 8.86447 6.72667C8.84614 6.72526 8.82639 6.72526 8.80664 6.72526C8.7883 6.72526 8.76996 6.72384 8.75162 6.72384H8.69519C8.67685 6.72384 8.65993 6.72526 8.64159 6.72526H8.58657C8.56964 6.72667 8.55131 6.72667 8.53438 6.72808C8.51604 6.72808 8.49911 6.72808 8.48218 6.7295C8.46525 6.7295 8.44691 6.73091 8.42999 6.73091C8.41306 6.73232 8.39613 6.73232 8.3792 6.73374C8.36227 6.73515 8.34534 6.73656 8.32842 6.73656C8.31149 6.73798 8.29456 6.73939 8.27904 6.73939C8.26211 6.7408 8.24518 6.74222 8.22967 6.74363L8.18029 6.74787L8.13233 6.75211L8.08437 6.75635L8.03641 6.76059L7.98985 6.76625C7.97434 6.76766 7.95882 6.76907 7.9433 6.7719C7.92778 6.77332 7.91226 6.77473 7.89674 6.77756C7.88123 6.77897 7.86571 6.78038 7.85019 6.78321L7.80505 6.78886L7.75992 6.79452L7.71619 6.80159L7.67105 6.80724C7.65694 6.81007 7.64143 6.81148 7.62732 6.81431C7.61321 6.81713 7.59769 6.81855 7.58359 6.82138L7.53986 6.82844L7.49754 6.83551C7.48343 6.83834 7.46791 6.84116 7.45381 6.84399L7.41149 6.85106L7.36916 6.85954L7.32825 6.86661L7.28593 6.87509L7.24502 6.88357L7.2027 6.89205L7.16179 6.90053L7.1223 6.91043C7.10819 6.91325 7.09549 6.91608 7.08138 6.91891L7.04189 6.92739L7.00098 6.93728C6.98828 6.94011 6.97417 6.94294 6.96148 6.94577L6.92198 6.95566L6.88248 6.96556L6.84298 6.97545C6.83028 6.97828 6.81759 6.98252 6.80489 6.98534L6.7668 6.99524L6.7273 7.00513L6.68921 7.01503L6.65112 7.02633L6.61303 7.03623C6.60175 7.04047 6.58905 7.0433 6.57636 7.04754L6.53827 7.05743L6.50159 7.06874C6.48889 7.07298 6.4762 7.07581 6.46491 7.08005L6.42682 7.09135L6.39015 7.10125L6.35347 7.11256L6.3182 7.12386L6.28153 7.13659L6.24626 7.14789L6.20958 7.1592L6.17432 7.17051L6.13905 7.18323L6.10378 7.19454L6.0671 7.20726L6.03325 7.21857L5.99798 7.23129L5.96271 7.24401L5.92886 7.25674L5.895 7.26946L5.85973 7.28077L5.82587 7.29349L5.79202 7.30762L5.75816 7.32035L5.7243 7.33307L5.69044 7.34579L5.658 7.35851L5.62414 7.37265L5.5917 7.38537L5.55784 7.3995L5.52539 7.41223L5.49295 7.42636L5.4605 7.4405L5.42806 7.45322L5.39561 7.46735L5.36317 7.48149L5.33213 7.49562L5.29969 7.50976L5.26865 7.52389L5.23621 7.53803L5.20517 7.55216L5.17414 7.5663L5.1431 7.58043L5.11207 7.59598L5.08104 7.61011L5.05 7.62425L5.01896 7.6398L4.98793 7.65393L4.95831 7.66948L4.92727 7.68503L4.89764 7.69916L4.87931 7.70906L4.86802 7.71471L4.8384 7.73026L4.80736 7.74581L4.77915 7.75994L4.74952 7.77549L4.7199 7.79246L4.69168 7.808L4.66206 7.82355L4.63385 7.8391L4.60563 7.85606L4.57601 7.87161L4.54779 7.88716L4.51958 7.90412L4.49278 7.92108L4.46456 7.93663L4.43635 7.95359L4.40955 7.97056L4.38134 7.98611L4.35453 8.00307L4.32632 8.02003L4.29952 8.03699L4.27271 8.05396L4.24591 8.07092L4.21911 8.08788L4.19231 8.10626L4.1655 8.12322L4.14011 8.14018L4.11331 8.15714L4.08791 8.17552L4.06111 8.19248L4.03572 8.20944L4.00892 8.22782L3.98352 8.24619L3.95813 8.26316L3.93274 8.28153L3.90734 8.29849L3.88195 8.31687L3.85656 8.33525L3.83116 8.35362L3.80577 8.37058L3.78179 8.38896L3.7564 8.40733L3.73242 8.42571L3.70702 8.44408L3.68304 8.46246L3.65906 8.48083L3.63367 8.50062L3.60969 8.519L3.5857 8.53737L3.56172 8.55575L3.53774 8.57413L3.51376 8.59391L3.48978 8.61229L3.4658 8.63208L3.44323 8.65045L3.41925 8.67024L3.39668 8.68862L3.37269 8.70841L3.35012 8.72678L3.32614 8.74657L3.30357 8.76636L3.281 8.78473L3.25843 8.80452L3.23445 8.82431L3.21188 8.8441L3.18931 8.86389L3.16815 8.88368L3.14558 8.90347L3.12301 8.92326L3.10043 8.94305L3.07927 8.96283L3.0567 8.98262L3.03554 9.00241L3.01297 9.0222L2.99181 9.0434L2.97065 9.06319L2.94808 9.08298L2.92692 9.10418L2.90576 9.12397L2.8846 9.14376L2.86344 9.16496L2.84228 9.18475L2.82112 9.20596L2.80136 9.22716L2.7802 9.24695L2.76045 9.26815L2.73929 9.28936L2.71954 9.31056L2.69838 9.33176L2.67863 9.35155L2.65889 9.37275L2.63913 9.39396L2.61939 9.41516L2.59964 9.43778L2.57989 9.45898L2.56014 9.48018L2.54039 9.50139L2.52205 9.52259L2.5023 9.54521L2.48396 9.56641L2.46421 9.58761L2.44587 9.61023L2.42754 9.63143L2.4092 9.65405L2.39086 9.67666L2.37252 9.69787L2.35418 9.72048L2.33584 9.7431L2.3175 9.76571L2.30058 9.78833L2.28224 9.81094L2.26531 9.83356L2.24838 9.85618L2.23145 9.87879L2.21452 9.90141L2.19759 9.92544L2.18066 9.94805L2.16373 9.97067L2.14822 9.9947L2.13129 10.0173C2.12562 10.025 2.12044 10.033 2.11577 10.0413L2.09884 10.0654L2.08332 10.0894L2.06781 10.112L2.05229 10.136L2.03818 10.1601L2.02267 10.1841L2.00856 10.2095L1.99304 10.2336L1.97894 10.2576L1.96483 10.2831C1.9606 10.2901 1.95495 10.2986 1.95072 10.3071L1.93802 10.3325L1.92392 10.3566L1.91122 10.382C1.90699 10.3905 1.90135 10.399 1.89712 10.4074C1.89288 10.4159 1.89006 10.4244 1.88583 10.4329L1.87313 10.4583C1.8689 10.4682 1.86467 10.4767 1.86044 10.4852C1.85609 10.4934 1.85232 10.5019 1.84915 10.5106C1.84455 10.5192 1.84077 10.5282 1.83787 10.5375C1.83352 10.5457 1.82975 10.5542 1.82658 10.5629C1.82235 10.5728 1.81812 10.5813 1.81529 10.5898L1.80965 10.6039L1.80401 10.6166L1.79272 10.6421L1.78144 10.6689L1.77015 10.6958L1.75887 10.7227L1.74899 10.7495L1.73912 10.7764C1.7363 10.7848 1.73207 10.7947 1.72925 10.8032L1.72078 10.8315L1.71232 10.8584C1.64139 11.0627 1.63256 11.2836 1.68692 11.493C1.49734 11.2596 1.39284 10.9684 1.39068 10.6675V10.635C1.39045 10.6237 1.39092 10.6124 1.39209 10.6011C1.39186 10.5907 1.39233 10.5803 1.39351 10.57C1.39327 10.5591 1.39374 10.5483 1.39492 10.5375C1.39516 10.5271 1.3961 10.5167 1.39774 10.5064C1.39791 10.496 1.39885 10.4856 1.40056 10.4753C1.40197 10.464 1.40197 10.4541 1.40338 10.4442C1.40479 10.4329 1.4062 10.423 1.40761 10.4131C1.40902 10.4032 1.41043 10.3933 1.41184 10.382C1.41325 10.3721 1.41608 10.3622 1.41749 10.3523C1.42125 10.3325 1.42501 10.3127 1.42877 10.293C1.43018 10.2831 1.433 10.2732 1.43441 10.2633C1.43724 10.2548 1.43865 10.2449 1.44147 10.235C1.44429 10.2251 1.4457 10.2152 1.44852 10.2053C1.4517 10.1961 1.45406 10.1867 1.45557 10.177C1.4584 10.1671 1.46122 10.1587 1.46404 10.1488C1.46686 10.1389 1.46968 10.1304 1.4725 10.1205L1.48097 10.0922C1.48379 10.0838 1.48661 10.0739 1.48943 10.0654C1.49225 10.0555 1.49507 10.047 1.4979 10.0371L1.50777 10.0103C1.51059 10.0004 1.51482 9.99188 1.51765 9.98198C1.52047 9.9735 1.5247 9.96502 1.52752 9.95512L1.5374 9.92827C1.54163 9.91979 1.54445 9.90989 1.54868 9.90141C1.5515 9.89293 1.55573 9.88445 1.55997 9.87456L1.57125 9.84911C1.57407 9.83922 1.5783 9.83074 1.58112 9.82225C1.58536 9.81377 1.58959 9.80529 1.59382 9.7954L1.60511 9.76995L1.61781 9.74451C1.62097 9.73578 1.62474 9.72728 1.62909 9.71907L1.64179 9.69221L1.65448 9.66677L1.66718 9.64132L1.68129 9.61729L1.69398 9.59185L1.70809 9.56641C1.71195 9.55793 1.71667 9.54987 1.72219 9.54238L1.7363 9.51693L1.749 9.4929C1.75464 9.48442 1.75887 9.47594 1.76452 9.46746L1.77862 9.44343C1.78384 9.43574 1.78856 9.42771 1.79273 9.4194C1.79837 9.41092 1.8026 9.40244 1.80825 9.39537L1.82376 9.37134L1.83787 9.34731L1.85339 9.32328C1.85905 9.3156 1.86423 9.30758 1.86891 9.29925L1.88584 9.27522C1.89007 9.26816 1.89571 9.25968 1.90135 9.2512C1.90604 9.24333 1.91122 9.23578 1.91687 9.22858L1.9338 9.20455L1.94932 9.18193L1.96624 9.15791L1.98317 9.13529L2.0001 9.11267C2.00574 9.10419 2.01139 9.09713 2.01703 9.08864C2.02267 9.08158 2.02831 9.07451 2.03396 9.06603L2.05089 9.04341L2.06782 9.0208L2.08616 8.99818L2.10449 8.97557L2.12142 8.95295L2.13976 8.93175L2.1581 8.90913L2.17644 8.88651L2.19478 8.8639L2.21312 8.8427C2.21876 8.83563 2.22581 8.82856 2.23146 8.82008L2.24979 8.79888L2.26954 8.77626L2.28788 8.75506L2.30763 8.73386L2.32597 8.71124L2.34572 8.69004C2.35277 8.68297 2.35842 8.6759 2.36547 8.66883L2.38522 8.64763L2.40497 8.62643C2.41202 8.61936 2.41766 8.61229 2.42472 8.60522C2.43092 8.59781 2.43751 8.59073 2.44447 8.58402L2.46422 8.56282L2.48538 8.54161L2.50513 8.52041L2.52629 8.50062L2.54603 8.47942L2.5672 8.45821L2.58836 8.43843L2.60811 8.41722L2.62927 8.39602L2.65043 8.37623L2.67159 8.35644L2.69416 8.33524L2.71532 8.31545L2.73648 8.29566L2.75764 8.27446L2.78022 8.25467L2.80138 8.23488L2.82395 8.21509L2.84652 8.1953L2.86909 8.17551L2.89025 8.15572L2.91282 8.13594L2.93539 8.11615L2.95796 8.09636L2.98053 8.07657L3.00451 8.05819L3.02708 8.03841L3.04965 8.01862L3.07364 8.00024L3.09621 7.98045L3.12019 7.96208L3.14417 7.94229L3.16674 7.92391L3.19072 7.90412L3.2147 7.88575L3.23868 7.86737L3.26266 7.84758L3.28665 7.82921L3.31063 7.81083L3.33602 7.79246L3.36 7.77408L3.38398 7.75571L3.40938 7.73733L3.43336 7.71896L3.45875 7.70058L3.48414 7.68221L3.50954 7.66383L3.53493 7.64687L3.55891 7.62849L3.5843 7.61012L3.61111 7.59316L3.6365 7.57478L3.66189 7.55782L3.68728 7.53944L3.71409 7.52248L3.73948 7.5041L3.76628 7.48714L3.79168 7.47018L3.81848 7.4518L3.84528 7.43484L3.87208 7.41788L3.89889 7.40092L3.92569 7.38395L3.95249 7.36699L3.97929 7.35003L4.0061 7.33307L4.03431 7.3161L4.06111 7.29914L4.08792 7.28218L4.11613 7.26663L4.14434 7.24967L4.17115 7.2327L4.19936 7.21716L4.22757 7.20019L4.25579 7.18465L4.284 7.16768L4.31221 7.15214L4.34184 7.13517L4.37005 7.11962L4.39826 7.10408L4.42789 7.08853L4.45751 7.07298L4.48573 7.05743L4.51535 7.04047C4.52523 7.03623 4.5351 7.03057 4.54498 7.02633L4.5746 7.01079L4.60423 6.99524L4.63385 6.97969L4.66348 6.96414L4.69451 6.94859L4.72414 6.93446L4.75376 6.91891L4.7848 6.90477L4.81583 6.88923L4.84546 6.87509L4.87649 6.85954L4.90753 6.84541L4.93856 6.83127L4.96395 6.81996L4.97101 6.81714L5.00204 6.803L5.03308 6.78745L5.06552 6.77332L5.09656 6.75918L5.129 6.74646L5.16145 6.73233C5.17188 6.72677 5.18273 6.72204 5.19389 6.71819L5.22493 6.70406L5.25879 6.68992L5.29123 6.6772C5.30111 6.67296 5.31239 6.66731 5.32368 6.66307L5.35612 6.65034L5.38998 6.63621L5.42243 6.62349L5.45628 6.60935L5.48873 6.59663L5.52258 6.58391L5.55644 6.57119L5.5903 6.55846L5.62416 6.54574L5.65801 6.53302L5.69187 6.5203L5.72714 6.50758L5.761 6.49485L5.79626 6.48213L5.83153 6.47082L5.8668 6.4581L5.90206 6.44538C5.91355 6.44225 5.92485 6.43848 5.93592 6.43407C5.94794 6.42966 5.96018 6.42589 5.9726 6.42276L6.00787 6.41004L6.04313 6.39873L6.07981 6.38743L6.11649 6.37612L6.15175 6.3634L6.18843 6.35209L6.22511 6.34219L6.26179 6.33089L6.29846 6.31958L6.33655 6.30827L6.37323 6.29838L6.41132 6.28707L6.44941 6.27717L6.4875 6.26587L6.52559 6.25597L6.56368 6.24608L6.60177 6.23618L6.64126 6.22629L6.67935 6.21639C6.69235 6.21243 6.70553 6.20913 6.71885 6.2065L6.75835 6.19661C6.77105 6.19378 6.78515 6.18954 6.79785 6.18671C6.81055 6.18388 6.82465 6.18106 6.83735 6.17823L6.87826 6.16834C6.89096 6.16551 6.90506 6.16268 6.91776 6.15985C6.93186 6.15703 6.94456 6.1542 6.95867 6.15137L6.99958 6.14289C7.01368 6.13865 7.02638 6.13582 7.04048 6.133C7.05459 6.13017 7.0687 6.12734 7.08281 6.12593L7.12372 6.11745L7.16604 6.10897L7.20836 6.10048L7.25068 6.09342L7.293 6.08494C7.30711 6.08352 7.32122 6.08069 7.33673 6.07787L7.37906 6.0708L7.42279 6.06373L7.46793 6.05808C7.48236 6.05492 7.49696 6.05257 7.51166 6.05101L7.5568 6.04394L7.60194 6.03829C7.61605 6.03688 7.63157 6.03405 7.64708 6.03264C7.6626 6.02981 7.67812 6.0284 7.69364 6.02698C7.70773 6.02558 7.72325 6.02275 7.73876 6.02134Z" fill="#BDBEBE"/>
<path fill-rule="evenodd" clip-rule="evenodd" d="M22.3155 2.47775C21.1292 1.19855 18.044 1.48831 15.5937 2.72794C13.7246 3.67215 11.5634 5.82913 12.225 6.94578C11.6974 6.72245 11.2644 5.95069 11.325 5.14641C11.4308 3.74989 12.8415 2.20495 14.8728 1.16179C16.608 0.268471 18.6548 -0.169712 20.1262 0.0606881C21.936 0.343386 22.5046 1.43318 22.3155 2.47775Z" fill="#00CCFF"/>
<path fill-rule="evenodd" clip-rule="evenodd" d="M18.7115 0.763231C18.7284 0.761817 18.7453 0.760404 18.7623 0.757577C20.9911 0.508804 22.2974 1.39789 22.3143 2.47779C21.8643 1.99296 21.1421 1.73429 20.2844 1.66645C20.2604 1.66362 20.2378 1.66221 20.2138 1.6608L20.1461 1.65655C20.1236 1.65514 20.1024 1.65514 20.0798 1.65373C20.0573 1.65231 20.0361 1.65231 20.0135 1.6509C19.9924 1.6509 19.9712 1.64949 19.95 1.64949C19.9289 1.64949 19.9077 1.64807 19.8866 1.64807H19.7638C19.7441 1.64807 19.7229 1.64807 19.7032 1.64949H19.6439C19.6242 1.6509 19.6044 1.6509 19.5861 1.65231C19.5663 1.65231 19.5466 1.65373 19.5282 1.65373C19.5085 1.65514 19.4902 1.65514 19.4704 1.65655C19.4521 1.65797 19.4337 1.65797 19.414 1.65938C19.3956 1.6608 19.3773 1.66221 19.359 1.66221L19.3039 1.66645L19.2489 1.67069C19.2306 1.6721 19.2137 1.67352 19.1953 1.67493C19.177 1.67634 19.1601 1.67776 19.1417 1.67917C19.1248 1.682 19.1065 1.68341 19.0881 1.68482C19.0712 1.68624 19.0543 1.68907 19.0373 1.69048C19.019 1.69189 19.0021 1.69331 18.9851 1.69613L18.9329 1.70179C18.916 1.7032 18.8991 1.70603 18.8821 1.70744C18.8652 1.71027 18.8483 1.71168 18.8314 1.71451C18.8144 1.71592 18.7989 1.71875 18.782 1.72158C18.7651 1.72299 18.7481 1.72582 18.7312 1.72864C18.7157 1.73006 18.6988 1.73288 18.6832 1.73571L18.6339 1.74278L18.5845 1.74984L18.5365 1.75833C18.521 1.76115 18.5055 1.76398 18.4886 1.76539L18.442 1.77388L18.3941 1.78236L18.3475 1.79084L18.3009 1.80073L18.2544 1.80921L18.2078 1.81911L18.1627 1.82759C18.1472 1.83042 18.1331 1.83324 18.1176 1.83748C18.102 1.84031 18.0879 1.84314 18.0724 1.84738L18.0273 1.85727L17.9821 1.86717L17.9384 1.87706L17.8947 1.88696L17.8509 1.89826L17.8072 1.90816C17.7931 1.9124 17.7776 1.91523 17.7635 1.91947L17.7212 1.92936L17.6774 1.94067C17.6633 1.94491 17.6492 1.94774 17.6351 1.95198L17.5928 1.96328L17.5505 1.97459C17.5364 1.97883 17.5222 1.98307 17.5081 1.9859C17.4954 1.99014 17.4813 1.99438 17.4672 1.99862L17.4249 2.00993L17.384 2.02124L17.3431 2.03396L17.3022 2.04668L17.2613 2.05799L17.2218 2.07071L17.1809 2.08343C17.1668 2.08768 17.1541 2.09192 17.14 2.09616L17.1005 2.10888L17.061 2.1216L17.0215 2.13432C17.0088 2.13856 16.9947 2.14422 16.982 2.14846L16.9425 2.16118L16.9044 2.17531C16.8903 2.17956 16.8776 2.1838 16.8649 2.18804L16.8268 2.20217L16.7873 2.21489L16.7492 2.22903L16.7111 2.24316L16.673 2.2573L16.6363 2.27143L16.5982 2.28557L16.5616 2.2997L16.5235 2.31384L16.4868 2.32797L16.4501 2.34352L16.412 2.35766C16.4008 2.3619 16.3881 2.36755 16.3768 2.37179L16.3401 2.38734L16.3034 2.40147L16.2667 2.41702L16.2315 2.43257L16.1948 2.44812L16.1595 2.46225L16.1243 2.4778L16.089 2.49335L16.0537 2.5089L16.0185 2.52445L15.9832 2.54L15.9493 2.55696L15.9141 2.57251L15.8802 2.58805L15.8449 2.60502L15.8111 2.62057L15.7772 2.63753L15.7434 2.65308L15.7095 2.67004L15.6757 2.687L15.6418 2.70255L15.6094 2.71951L15.5924 2.72799L15.5755 2.73648L15.5431 2.75344L15.5092 2.7704L15.4767 2.78736L15.4443 2.80433L15.4119 2.8227L15.3808 2.83966L15.3484 2.85663L15.3159 2.875L15.2849 2.89197L15.2539 2.91034L15.2228 2.92872L15.1918 2.94709L15.1608 2.96405L15.1297 2.98243L15.0987 3.0008C15.0889 3.00775 15.0785 3.0139 15.0677 3.01918L15.038 3.03755L15.0084 3.05593L14.9774 3.07572L14.9477 3.09409L14.9181 3.11247L14.8885 3.13226L14.8589 3.15063L14.8292 3.16901L14.7996 3.1888L14.7714 3.20859L14.7418 3.22696L14.7122 3.24675L14.6839 3.26654L14.6557 3.28491L14.6261 3.3047L14.5979 3.32449L14.5697 3.34428L14.5415 3.36407L14.5133 3.38386L14.485 3.40365L14.4582 3.42344L14.43 3.44464L14.4018 3.46443L14.375 3.48422L14.3468 3.50401L14.32 3.52521L14.2932 3.545L14.2664 3.5662L14.2396 3.58599L14.2128 3.60719L14.186 3.62698L14.1592 3.64819L14.1324 3.66939L14.1056 3.68918L14.0788 3.71038L14.0534 3.73158L14.0266 3.75279L14.0012 3.77399L13.9758 3.79519L13.949 3.8164L13.9236 3.8376L13.8982 3.8588L13.8728 3.88001L13.8474 3.90121L13.822 3.92241L13.7966 3.94503L13.7712 3.96623L13.7473 3.98744L13.7219 4.01005L13.6965 4.03125L13.6725 4.05387L13.6485 4.07507L13.6231 4.09769L13.5991 4.1203L13.5751 4.14151L13.5512 4.16412L13.5272 4.18674L13.5032 4.20935L13.4792 4.23056L13.4552 4.25317C13.4482 4.26166 13.4397 4.26872 13.4327 4.27579L13.4087 4.29841L13.3847 4.32102L13.3621 4.34364L13.3396 4.36767L13.3156 4.39028L13.293 4.4129L13.2704 4.43551L13.2479 4.45954L13.2253 4.48216L13.2027 4.50477L13.1802 4.5288L13.1576 4.55142L13.1364 4.57545L13.1139 4.59948L13.0927 4.62209L13.0715 4.64612L13.049 4.67015C13.0419 4.67863 13.0349 4.6857 13.0278 4.69418C13.0208 4.70125 13.0137 4.70973 13.0066 4.71821L12.9855 4.74224L12.9643 4.76627L12.9432 4.7903L12.9234 4.81433L12.9023 4.83836L12.8811 4.86239L12.8613 4.88783L12.8416 4.91186L12.8204 4.9373L12.8007 4.96133L12.7809 4.98678L12.7612 5.01081L12.7428 5.03625L12.7231 5.06169L12.7033 5.08714L12.685 5.11117L12.6667 5.13661L12.6483 5.16205L12.6286 5.18891C12.6229 5.19772 12.6168 5.20622 12.6102 5.21435L12.5933 5.2398L12.575 5.26524C12.5693 5.27372 12.5623 5.28362 12.5566 5.2921L12.5397 5.31754L12.5228 5.3444C12.5171 5.35288 12.5101 5.36136 12.5044 5.36984C12.4988 5.37974 12.4946 5.38822 12.4889 5.3967L12.472 5.42356L12.4551 5.45041C12.4494 5.45905 12.4442 5.46802 12.4395 5.47727L12.4226 5.50412L12.4071 5.53098L12.3916 5.55925C12.3859 5.56773 12.3817 5.57763 12.3761 5.58611C12.3704 5.596 12.3662 5.60448 12.3605 5.61438L12.3464 5.64123C12.3408 5.65113 12.3366 5.66102 12.3323 5.6695C12.3229 5.68835 12.3135 5.70719 12.3041 5.72604L12.29 5.75431L12.2773 5.78258C12.272 5.79219 12.2673 5.8021 12.2632 5.81226C12.259 5.82216 12.2547 5.83205 12.2505 5.84053C12.2461 5.85018 12.2424 5.8601 12.2392 5.87022L12.2265 5.8999C12.2223 5.9098 12.2195 5.91969 12.2152 5.92959C12.211 5.93948 12.2082 5.94938 12.204 5.95927C12.1997 5.96917 12.1969 5.97906 12.1927 5.99037C12.1899 6.00026 12.1856 6.01016 12.1828 6.02005C12.18 6.02995 12.1758 6.04126 12.1729 6.05115C12.1701 6.06104 12.1659 6.07094 12.1631 6.08225C12.1602 6.09214 12.1574 6.10345 12.1546 6.11334C12.1518 6.12324 12.1489 6.13455 12.1461 6.14444C12.1433 6.15575 12.1419 6.16564 12.1391 6.17695C12.065 6.43442 12.0954 6.71078 12.2237 6.94589C11.9574 6.67896 11.7931 6.32675 11.7596 5.9508C11.7596 5.93807 11.7582 5.92535 11.7582 5.91263C11.7566 5.89997 11.7556 5.88723 11.7554 5.87446V5.83771C11.7542 5.8255 11.7537 5.81323 11.754 5.80096C11.754 5.78966 11.7554 5.77693 11.7554 5.76421C11.7552 5.75242 11.7556 5.74062 11.7568 5.72888C11.7573 5.70527 11.7587 5.68169 11.761 5.6582C11.7627 5.64696 11.7636 5.63563 11.7638 5.62428C11.7652 5.61297 11.7667 5.60166 11.7681 5.58894C11.7695 5.57763 11.7709 5.56632 11.7723 5.55643C11.7761 5.53381 11.7798 5.5112 11.7836 5.48858C11.785 5.47727 11.7878 5.46738 11.7892 5.45607C11.7918 5.44489 11.7937 5.43356 11.7949 5.42214C11.7977 5.41225 11.8005 5.40094 11.8033 5.39105C11.805 5.38007 11.8074 5.36922 11.8104 5.35854C11.8132 5.34723 11.8146 5.33733 11.8174 5.32603C11.8203 5.31613 11.8231 5.30482 11.8259 5.29493C11.8286 5.28437 11.8319 5.27399 11.8358 5.26383C11.8386 5.25253 11.8414 5.24263 11.8442 5.23274C11.8467 5.22212 11.85 5.21172 11.8541 5.20164L11.864 5.17054C11.8668 5.16065 11.8696 5.15076 11.8739 5.13945C11.8767 5.12955 11.8809 5.11966 11.8837 5.10976L11.895 5.08008C11.8993 5.07018 11.9021 5.05888 11.9063 5.04898C11.9095 5.03886 11.9132 5.02895 11.9176 5.0193L11.9303 4.99103C11.9345 4.98113 11.9374 4.97124 11.9416 4.96134L11.9543 4.93166C11.9585 4.92176 11.9627 4.91187 11.967 4.90339L11.9797 4.8737L11.9938 4.84544C11.998 4.83554 12.0022 4.82565 12.0065 4.81716C12.0121 4.80727 12.0164 4.79738 12.0206 4.78889C12.0248 4.779 12.0305 4.76911 12.0347 4.76063C12.0389 4.75073 12.0446 4.74084 12.0488 4.73236C12.0544 4.72246 12.0587 4.71398 12.0643 4.70409C12.0685 4.6956 12.0728 4.68571 12.0784 4.67582C12.0831 4.66656 12.0882 4.6576 12.0939 4.64896L12.1095 4.6221C12.1141 4.61239 12.1193 4.60295 12.125 4.59383L12.1405 4.56698C12.1451 4.55773 12.1503 4.54876 12.156 4.54012L12.1729 4.51326C12.1773 4.50385 12.1825 4.49486 12.1885 4.48641C12.1941 4.47651 12.1997 4.46803 12.2054 4.45955L12.2223 4.4327C12.228 4.42421 12.2336 4.41432 12.2392 4.40584L12.2562 4.3804C12.2618 4.3705 12.2675 4.36202 12.2731 4.35354L12.2914 4.3281C12.2971 4.3182 12.3027 4.30972 12.3084 4.30124C12.3149 4.2931 12.3211 4.28461 12.3267 4.2758L12.345 4.25035L12.3634 4.2235L12.3817 4.19805C12.3874 4.18957 12.3944 4.18109 12.4001 4.17261L12.4198 4.14716C12.4255 4.13868 12.4325 4.1302 12.4381 4.12172L12.4579 4.09769L12.4776 4.07225L12.496 4.0468C12.503 4.03832 12.5087 4.03126 12.5157 4.02278C12.5228 4.01464 12.5293 4.00615 12.5355 3.99733L12.5566 3.9733C12.5628 3.96448 12.5694 3.95599 12.5764 3.94786C12.5834 3.94079 12.5891 3.93231 12.5961 3.92383C12.6032 3.91535 12.6103 3.90828 12.6173 3.8998L12.6371 3.87577L12.6582 3.85033L12.6794 3.8263L12.7005 3.80227L12.7217 3.77824L12.7429 3.75421L12.764 3.73159L12.7866 3.70756L12.8077 3.68354C12.8148 3.67647 12.8219 3.66799 12.8289 3.66092L12.8515 3.63689L12.8741 3.61286L12.8966 3.59025C12.9037 3.58318 12.9107 3.5747 12.9178 3.56763L12.9418 3.5436L12.9643 3.52098L12.9869 3.49837C12.994 3.48989 13.0024 3.48282 13.0095 3.47434L13.0335 3.45172L13.056 3.42911L13.08 3.40649L13.1026 3.38388L13.1266 3.36126L13.1505 3.33864L13.1745 3.31744C13.183 3.30896 13.19 3.30189 13.1985 3.29483L13.2225 3.27221L13.2465 3.25101L13.2705 3.22839L13.2958 3.20578C13.3029 3.19871 13.3114 3.19164 13.3198 3.18457L13.3452 3.16196L13.3692 3.14075L13.3946 3.11955L13.42 3.09693L13.4454 3.07573L13.4708 3.05453L13.4962 3.03332L13.5216 3.01212L13.547 2.99092L13.5723 2.96971L13.5991 2.94851L13.6245 2.92731L13.6513 2.9061L13.6781 2.8849L13.7035 2.8637L13.7303 2.84391L13.7571 2.82271L13.7839 2.8015L13.8107 2.78171L13.8376 2.76051L13.8644 2.74072L13.8926 2.71952L13.9194 2.69973L13.9462 2.67994L13.9744 2.65874L14.0012 2.63895L14.0294 2.61916L14.0576 2.59937L14.0858 2.57958L14.114 2.55979L14.1423 2.54001L14.1705 2.52022L14.1987 2.50043L14.2269 2.48064L14.2565 2.46085L14.2847 2.44248L14.3144 2.42269L14.3426 2.4029C14.3524 2.39724 14.3623 2.39018 14.3722 2.38452L14.4018 2.36473L14.4314 2.34636L14.4611 2.32657C14.4695 2.32092 14.4794 2.31385 14.4893 2.30819L14.5203 2.28982L14.5499 2.27003L14.5796 2.25165C14.5894 2.246 14.5993 2.23893 14.6092 2.23328C14.6205 2.22762 14.6304 2.22056 14.6402 2.2149L14.6713 2.19653L14.7009 2.17815L14.7319 2.15978C14.7418 2.15283 14.7521 2.14668 14.763 2.1414L14.794 2.12303L14.8236 2.10465L14.8547 2.08628L14.8871 2.06931L14.9181 2.05094L14.9492 2.03398L14.9816 2.0156L15.0126 1.99864L15.0451 1.98026L15.0761 1.9633L15.1086 1.94492L15.141 1.92796L15.1735 1.911L15.2059 1.89404L15.2384 1.87707L15.2722 1.86011L15.3047 1.84315L15.3371 1.82619L15.371 1.80922L15.4048 1.79226L15.4387 1.7753C15.4491 1.76927 15.4599 1.76408 15.4711 1.75975L15.505 1.74279L15.5388 1.72583L15.5741 1.71028L15.608 1.69331C15.6195 1.68872 15.6308 1.68353 15.6418 1.67777L15.6771 1.66222L15.7109 1.64667L15.7462 1.62971L15.7815 1.61416L15.8167 1.59861L15.8506 1.58448L15.852 1.58306C15.864 1.57848 15.8758 1.57329 15.8873 1.56751L15.924 1.55338L15.9592 1.53783L15.9945 1.52228L16.0312 1.50673L16.0678 1.4926L16.1031 1.47705L16.1398 1.46292L16.1765 1.44737C16.1892 1.44313 16.2004 1.43747 16.2131 1.43323L16.2498 1.41769L16.2865 1.40355L16.3246 1.38941L16.3613 1.37528C16.374 1.36963 16.3852 1.36539 16.3979 1.35973C16.4106 1.35549 16.4233 1.35125 16.436 1.3456L16.4741 1.33146L16.5108 1.31733L16.5489 1.30461L16.587 1.29047C16.5997 1.28482 16.6124 1.28058 16.6251 1.27634L16.6646 1.2622L16.7027 1.24948C16.7154 1.24383 16.728 1.23958 16.7407 1.23534L16.7802 1.22121L16.8183 1.20849L16.8578 1.19577L16.8973 1.18163L16.9368 1.16891C16.9495 1.16467 16.9636 1.16043 16.9763 1.15619L17.0158 1.14346L17.0567 1.13074C17.0694 1.1265 17.0835 1.12226 17.0962 1.11802C17.1103 1.11378 17.123 1.10954 17.1371 1.1053L17.1781 1.09258L17.219 1.08127C17.2317 1.07703 17.2458 1.07279 17.2585 1.06855C17.2726 1.06431 17.2867 1.06007 17.3008 1.05724L17.3417 1.04452L17.384 1.03321C17.3974 1.02861 17.4111 1.02483 17.4249 1.0219C17.439 1.01766 17.4531 1.01342 17.4672 1.01059C17.4814 1.00635 17.4955 1.00211 17.5096 0.999286L17.5519 0.987978C17.566 0.983737 17.5801 0.979496 17.5942 0.97667C17.6097 0.972429 17.6238 0.969603 17.6379 0.965362L17.6817 0.954054L17.724 0.94416C17.7395 0.939919 17.7536 0.937093 17.7677 0.932852C17.7832 0.930025 17.7973 0.927198 17.8129 0.922957L17.8566 0.913063C17.8721 0.910236 17.8862 0.905996 17.9017 0.903168L17.9455 0.893274C17.961 0.889033 17.9765 0.886207 17.992 0.88338L18.0372 0.873486C18.0513 0.870658 18.0668 0.867832 18.0823 0.865004C18.0978 0.860764 18.1133 0.857937 18.1289 0.85511L18.1754 0.846629L18.222 0.838147L18.2685 0.829666C18.2854 0.826839 18.301 0.824012 18.3165 0.821185C18.332 0.818357 18.3489 0.815531 18.3644 0.812703L18.4124 0.805636L18.4618 0.797155C18.4773 0.795742 18.4942 0.792914 18.5097 0.790088L18.5591 0.783021C18.576 0.781607 18.593 0.77878 18.6099 0.775954C18.6268 0.774539 18.6438 0.771713 18.6593 0.770299L18.7115 0.763231Z" fill="#0063DC"/>
<path fill-rule="evenodd" clip-rule="evenodd" d="M11.7678 13.9482C10.4884 14.5517 8.55999 14.9376 7.7545 14.4825C7.16202 14.1475 7.26077 13.7065 7.5429 13.3715C7.35105 14.2507 9.89025 13.927 11.7255 12.9375C13.558 11.9495 13.2265 11.0689 13.0247 10.9191C15.0617 11.3134 13.4536 13.1524 11.7678 13.9482Z" fill="#00CCFF"/>
<path fill-rule="evenodd" clip-rule="evenodd" d="M13.1323 11.6286C13.2635 11.2583 13.1281 10.9954 13.0251 10.9191C13.4624 11.0647 13.6133 11.411 13.4765 11.835L13.4709 11.852L13.4652 11.8689C13.4638 11.8746 13.461 11.8802 13.4596 11.8859C13.4568 11.8915 13.4553 11.8972 13.4525 11.9029L13.4455 11.9198L13.4398 11.9354C13.4369 11.9408 13.4345 11.9464 13.4328 11.9523L13.4257 11.9693L13.4173 11.9848L13.4102 12.0004L13.4017 12.0174L13.3947 12.0329L13.3862 12.0484L13.3778 12.064C13.3752 12.0693 13.3724 12.0745 13.3693 12.0795L13.3608 12.0951C13.3583 12.1004 13.3555 12.1056 13.3524 12.1106C13.3495 12.1163 13.3467 12.1205 13.3439 12.1262L13.334 12.1417C13.3309 12.1468 13.3281 12.1519 13.3256 12.1573L13.3157 12.1714L13.3072 12.187L13.2973 12.2011L13.2875 12.2167C13.2846 12.2209 13.2804 12.2265 13.2776 12.2308L13.2677 12.2463C13.2649 12.2506 13.2607 12.2562 13.2578 12.2605L13.248 12.2746L13.2367 12.2887L13.2268 12.3043L13.2169 12.3184L13.2056 12.3326L13.1944 12.3467L13.1845 12.3608L13.1732 12.375L13.1619 12.3891L13.1506 12.4032L13.1393 12.416L13.1281 12.4301L13.1154 12.4442L13.1041 12.4569L13.0928 12.4711L13.0815 12.4852L13.0688 12.4979L13.0575 12.5121L13.0448 12.5248L13.0321 12.5389L13.0194 12.5516L13.0082 12.5644L12.9955 12.5785L12.9828 12.5912L12.9701 12.604L12.9574 12.6167L12.9447 12.6294L12.9306 12.6435L12.9179 12.6563L12.9052 12.669L12.8925 12.6817L12.8784 12.6944L12.8657 12.7071L12.8516 12.7184L12.8375 12.7312L12.8248 12.7439L12.8107 12.7566L12.7965 12.7693L12.7824 12.7806L12.7683 12.7934L12.7542 12.8061L12.7401 12.8174L12.726 12.8301L12.7119 12.8414L12.6978 12.8541L12.6837 12.8655L12.6682 12.8782L12.6541 12.8895L12.64 12.9022L12.6244 12.9135L12.6103 12.9248L12.5948 12.9375L12.5793 12.9489L12.5652 12.9602L12.5497 12.9715L12.5342 12.9828L12.5186 12.9955L12.5045 13.0068L12.4876 13.0181L12.4721 13.0294L12.4566 13.0407L12.4411 13.052L12.4255 13.0633L12.41 13.0747L12.3945 13.0845L12.3776 13.0959L12.3621 13.1072L12.3465 13.1185L12.3296 13.1298L12.3141 13.1397L12.2972 13.151L12.2817 13.1623L12.2647 13.1722L12.2478 13.1835L12.2309 13.1948L12.2154 13.2047L12.1984 13.216L12.1815 13.2259L12.1646 13.2372L12.1476 13.2471L12.1307 13.2584L12.1138 13.2683L12.0968 13.2782L12.0785 13.2895L12.0616 13.2994L12.0447 13.3093L12.0277 13.3206L12.0094 13.3305L11.9925 13.3404L11.9741 13.3503L11.9572 13.3602L11.9389 13.3701L11.9219 13.38L11.9036 13.3899L11.8852 13.3998L11.8683 13.4096L11.85 13.4195L11.8316 13.4294L11.8133 13.4393L11.795 13.4492L11.7766 13.4591L11.7583 13.469L11.7399 13.4775L11.7216 13.4874L11.7033 13.4973L11.6835 13.5072L11.6652 13.5157L11.6468 13.5256L11.6271 13.5354L11.6088 13.5439L11.5904 13.5538L11.5707 13.5623L11.5509 13.5722L11.5326 13.5807L11.5128 13.5906L11.4931 13.5991L11.4747 13.609L11.455 13.6174L11.4352 13.6259L11.4155 13.6358L11.3957 13.6443L11.376 13.6528L11.3562 13.6613L11.3365 13.6711L11.3167 13.6796L11.297 13.6881L11.2772 13.6966L11.2561 13.7051L11.2363 13.7136L11.2166 13.722L11.1954 13.7305L11.1757 13.739L11.1573 13.7475H11.1559L11.1348 13.756L11.1136 13.7644L11.0939 13.7729L11.0727 13.7814L11.0515 13.7899L11.0318 13.7984L11.0106 13.8054L10.9895 13.8139L10.9683 13.8224L10.9486 13.8309L10.9274 13.8379L10.9062 13.8464L10.8851 13.8549L10.8639 13.862L10.8428 13.8705L10.8216 13.8789L10.8004 13.886L10.7779 13.8945L10.7567 13.9016L10.7355 13.91L10.7144 13.9171L10.6932 13.9256L10.6706 13.9326L10.6495 13.9411L10.6269 13.9482L10.6058 13.9553L10.5832 13.9637L10.562 13.9708L10.5395 13.9779L10.5169 13.9849L10.4957 13.9934L10.4731 14.0005L10.4506 14.0076L10.428 14.0146L10.4054 14.0217L10.3829 14.0288L10.3603 14.0372L10.3377 14.0429L10.3152 14.05L10.2926 14.057L10.27 14.0641L10.246 14.0712L10.2235 14.0782L10.2009 14.0853L10.1769 14.0924L10.1543 14.098L10.1304 14.1051L10.1064 14.1122L10.0838 14.1178L10.0598 14.1249L10.0358 14.132L10.0119 14.1376L9.98788 14.1433L9.9639 14.1503L9.93991 14.156L9.91593 14.163L9.89054 14.1687L9.86656 14.1744L9.84258 14.18L9.81718 14.1857L9.79179 14.1927L9.76781 14.1984L9.74242 14.204L9.71703 14.2097L9.69163 14.2139L9.66624 14.2196L9.64085 14.2252L9.61545 14.2309L9.58865 14.2351L9.56326 14.2408L9.53646 14.2464L9.51106 14.2507L9.48426 14.2563L9.45746 14.2606L9.43065 14.2648L9.40385 14.2691L9.37705 14.2733L9.34883 14.2775L9.32203 14.2818L9.29382 14.286C9.28394 14.2874 9.27548 14.2889 9.26561 14.2903L9.23739 14.2945L9.20918 14.2973L9.17955 14.3016L9.15134 14.3044L9.12172 14.3072L9.09209 14.3101L9.06246 14.3129L9.03284 14.3157L9.0018 14.3185C8.99193 14.3199 8.98206 14.3199 8.97218 14.3214L8.94115 14.3228L8.9087 14.3242L8.87766 14.327H8.84522C8.83444 14.3282 8.82361 14.3286 8.81277 14.3284C7.91418 14.3539 7.44302 14.0274 7.50085 13.5468C7.50226 13.5397 7.50227 13.534 7.50368 13.527C7.50509 13.5213 7.50509 13.5143 7.5065 13.5086L7.51073 13.4902C7.51225 13.4842 7.5132 13.4781 7.51355 13.4719C7.51496 13.4662 7.51637 13.4591 7.51778 13.4535C7.51919 13.4478 7.52202 13.4422 7.52343 13.4351L7.52766 13.4181C7.53017 13.4127 7.53206 13.407 7.5333 13.4012L7.53894 13.3828C7.54059 13.3791 7.542 13.3753 7.54318 13.3715C7.54177 13.3757 7.54177 13.38 7.54036 13.3842C7.54022 13.3904 7.53927 13.3966 7.53753 13.4026C7.53612 13.4097 7.53612 13.4153 7.53471 13.4224C7.53471 13.4294 7.5333 13.4351 7.5333 13.4422V13.4832C7.53363 13.4908 7.53458 13.4983 7.53612 13.5058C7.53753 13.5128 7.53753 13.5199 7.53894 13.5284C7.54035 13.5355 7.54318 13.5439 7.54459 13.5524C7.54741 13.5609 7.55164 13.5694 7.55446 13.5779C7.61089 13.7192 7.77453 13.8083 8.01434 13.8521C8.02986 13.8549 8.04537 13.8577 8.0623 13.8606C8.07641 13.862 8.09193 13.8648 8.10744 13.8662C8.12014 13.8676 8.13566 13.869 8.14976 13.8719C8.16246 13.8733 8.17657 13.8733 8.19067 13.8747C8.20378 13.8764 8.21696 13.8773 8.23017 13.8775C8.24287 13.8789 8.25557 13.8789 8.26826 13.8804C8.27955 13.8804 8.29224 13.8818 8.30494 13.8818C8.31764 13.8818 8.32892 13.8832 8.34162 13.8832H8.47986L8.51231 13.8818L8.54475 13.8804L8.5772 13.8789C8.58803 13.8792 8.59887 13.8787 8.60964 13.8775C8.61952 13.8775 8.6308 13.8761 8.64068 13.8761L8.67171 13.8733L8.70275 13.8719L8.73378 13.869L8.76341 13.8662L8.79303 13.8634L8.82266 13.8606L8.85228 13.8577L8.88191 13.8549L8.91012 13.8507L8.93834 13.8478L8.96796 13.8436L8.99476 13.8408L9.02297 13.8365L9.05119 13.8323L9.0794 13.8281L9.1062 13.8238L9.13442 13.8196L9.16122 13.8153L9.18802 13.8111L9.21483 13.8068L9.24163 13.8012L9.26843 13.797L9.29523 13.7927L9.32063 13.7871L9.34743 13.7828L9.37423 13.7772L9.39962 13.7715L9.42502 13.7673L9.45182 13.7616L9.47721 13.756L9.50261 13.7503L9.528 13.7447L9.55339 13.7404L9.57737 13.7348L9.60277 13.7291L9.62816 13.7235L9.65214 13.7164L9.67753 13.7107L9.70151 13.7051L9.72691 13.6994L9.75089 13.6938L9.77487 13.6867L9.79885 13.681L9.82425 13.6754L9.84823 13.6683L9.87221 13.6627L9.89619 13.6556L9.92017 13.65L9.94274 13.6429L9.96672 13.6358L9.9907 13.6302L10.0133 13.6231L10.0373 13.616L10.0612 13.6104L10.0838 13.6033L10.1064 13.5962L10.1304 13.5892L10.1529 13.5821L10.1755 13.5764L10.1995 13.5694L10.2221 13.5623L10.2446 13.5552L10.2672 13.5482L10.2898 13.5411L10.3123 13.5326L10.3349 13.5256L10.3575 13.5185L10.3786 13.5114L10.4012 13.5044L10.4238 13.4973L10.4449 13.4888L10.4675 13.4817L10.4901 13.4747L10.5112 13.4662L10.5338 13.4591L10.555 13.4521L10.5761 13.4436L10.5987 13.4365L10.6199 13.428L10.641 13.421L10.6622 13.4125L10.6834 13.404L10.7059 13.3969L10.7271 13.3885L10.7482 13.3814L10.7694 13.3729L10.7892 13.3644L10.8103 13.3574L10.8315 13.3489L10.8526 13.3404L10.8738 13.3319L10.8935 13.3234L10.9147 13.3164L10.9359 13.3079L10.9556 13.2994L10.9768 13.2909L10.9965 13.2824L11.0177 13.274L11.0374 13.2655L11.0572 13.257L11.0783 13.2485L11.0981 13.24L11.1178 13.2301L11.1376 13.2217L11.1573 13.2132L11.1785 13.2047L11.1983 13.1962L11.218 13.1863L11.2378 13.1778L11.2575 13.1694L11.2758 13.1609L11.2956 13.151L11.3153 13.1425L11.3351 13.134L11.3548 13.1241L11.3732 13.1156L11.3929 13.1057L11.4113 13.0973L11.431 13.0874L11.4508 13.0789L11.4691 13.069L11.4874 13.0605L11.5072 13.0506L11.5255 13.0407L11.5439 13.0322L11.5636 13.0223L11.582 13.0125L11.6003 13.0026L11.6186 12.9941L11.637 12.9842L11.6553 12.9743L11.6736 12.9644L11.692 12.9545L11.7103 12.9446L11.7258 12.9375L11.7287 12.9361L11.747 12.9262L11.7653 12.9163L11.7823 12.9064L11.8006 12.8965L11.8189 12.8867L11.8359 12.8753L11.8542 12.8654L11.8726 12.8556L11.8895 12.8457L11.9064 12.8358L11.9248 12.8259L11.9417 12.8146L11.9586 12.8047L11.9769 12.7948L11.9939 12.7849L12.0108 12.7736L12.0277 12.7637L12.0447 12.7538L12.0616 12.7425L12.0785 12.7326L12.0954 12.7213L12.1124 12.7114L12.1293 12.7001L12.1448 12.6888L12.1618 12.6789L12.1787 12.6676L12.1942 12.6563L12.2111 12.6464L12.2266 12.6351L12.2436 12.6237L12.2591 12.6124L12.2746 12.6011L12.2915 12.5912L12.3071 12.5799L12.3226 12.5686L12.3381 12.5573L12.3536 12.546L12.3691 12.5347L12.3846 12.5234L12.4002 12.5107L12.4143 12.4994L12.4298 12.488L12.4453 12.4767L12.4594 12.464L12.4749 12.4527L12.489 12.4414L12.5045 12.4287L12.5187 12.4174L12.5328 12.4061L12.5483 12.3933L12.5624 12.3806L12.5765 12.3693L12.5906 12.3566L12.6047 12.3439L12.6174 12.3326L12.6315 12.3198L12.6456 12.3071L12.6583 12.2944L12.6724 12.2817L12.6865 12.269L12.6992 12.2562L12.7119 12.2435L12.7246 12.2308L12.7387 12.2181L12.7514 12.2053L12.7641 12.1926L12.7754 12.1785L12.7881 12.1658L12.8008 12.153L12.8135 12.1389C12.8168 12.1343 12.8206 12.1301 12.8248 12.1262L12.8361 12.112L12.8488 12.0993L12.86 12.0852L12.8713 12.0711L12.8826 12.0569L12.8939 12.0442L12.9052 12.0301L12.9165 12.0159L12.9278 12.0018L12.9376 11.9877L12.9489 11.9721L12.9588 11.958C12.9616 11.9537 12.9658 11.9481 12.9687 11.9438C12.9729 11.9382 12.9757 11.9339 12.9785 11.9297L12.9884 11.9142L12.9983 11.9L13.0082 11.8845L13.0166 11.8689L13.0265 11.8548L13.035 11.8392L13.0448 11.8237L13.0533 11.8081C13.0561 11.8025 13.0589 11.7983 13.0618 11.7926L13.0688 11.7771L13.0773 11.7615L13.0843 11.7445L13.0928 11.729L13.0999 11.712L13.1069 11.6965L13.114 11.6795C13.1168 11.6739 13.1182 11.6682 13.121 11.6626C13.1224 11.6569 13.1252 11.6512 13.1267 11.647C13.129 11.641 13.1309 11.6349 13.1323 11.6286Z" fill="#0063DC"/>
<path fill-rule="evenodd" clip-rule="evenodd" d="M20.4605 10.7382C19.0357 11.394 16.9028 11.8364 16.0084 11.3318C15.3525 10.9615 15.4611 10.4696 15.7742 10.1007C15.6205 10.806 17.0551 10.8131 18.6294 10.3466C19.0474 10.2466 19.4523 10.0976 19.8356 9.90278C20.033 9.81373 20.2258 9.71856 20.4139 9.61726C22.4481 8.52039 22.0785 7.5465 21.8542 7.3783C24.1127 7.81506 22.3155 9.88441 20.4605 10.7382Z" fill="#00CCFF"/>
<path fill-rule="evenodd" clip-rule="evenodd" d="M19.1134 10.2067L19.1374 10.1982L19.1614 10.1912L19.1853 10.1827L19.2093 10.1728L19.2333 10.1643L19.2573 10.1558L19.2799 10.1473L19.3038 10.1389L19.3264 10.129L19.3504 10.1205L19.373 10.112L19.3955 10.1021L19.4195 10.0936L19.4421 10.0837L19.4647 10.0738L19.4872 10.0654L19.5084 10.0555L19.531 10.0456L19.5535 10.0357L19.5747 10.0258L19.5973 10.0173L19.6184 10.0074L19.641 9.99751L19.6621 9.9862L19.6833 9.97631L19.7045 9.96641L19.7256 9.95652L19.7468 9.94662L19.768 9.93532L19.7891 9.92542L19.8103 9.91553L19.83 9.90422L19.8357 9.90281L19.8526 9.89433L19.8738 9.88443L19.8963 9.87454L19.9175 9.86464L19.9386 9.85475L19.9598 9.84485L19.9824 9.83496L20.0035 9.82506L20.0247 9.81517L20.0459 9.80528L20.067 9.79397L20.0882 9.78407L20.1093 9.77418L20.1305 9.76428L20.1517 9.75298L20.1728 9.74308L20.1926 9.73319L20.2137 9.72188L20.2349 9.71199L20.2546 9.70068L20.2758 9.69078L20.2956 9.67948L20.3167 9.66958L20.3365 9.65827L20.3576 9.64838L20.3774 9.63707L20.3971 9.62576L20.4141 9.61728L20.4183 9.61587L20.438 9.60456L20.4578 9.59325L20.4775 9.58195L20.4973 9.57205L20.517 9.56074L20.5368 9.54943L20.5565 9.53813L20.5763 9.52682L20.596 9.51551L20.6158 9.5042L20.6341 9.4929L20.6539 9.48159L20.6736 9.47028L20.692 9.45897L20.7117 9.44766L20.73 9.43635L20.7484 9.42505L20.7681 9.41374L20.7865 9.40102L20.8048 9.38971L20.8231 9.3784L20.8429 9.36568L20.8612 9.35437L20.8796 9.34306L20.8979 9.33034L20.9163 9.31903L20.9332 9.30631L20.9515 9.295L20.9699 9.28228L20.9882 9.26956L21.0051 9.25825L21.0235 9.24553L21.0404 9.23281L21.0573 9.2215L21.0757 9.20878L21.0926 9.19606L21.1095 9.18334L21.1264 9.17061L21.1448 9.15789L21.1603 9.14517L21.1772 9.13245L21.1942 9.11973L21.2111 9.107L21.228 9.09428L21.2435 9.08015L21.2605 9.06743L21.2774 9.0547L21.2929 9.04057L21.3084 9.02785L21.3254 9.01512L21.3409 9.00099L21.3564 8.98827L21.3719 8.97413L21.3874 8.96L21.4029 8.94728L21.4185 8.93314L21.434 8.91901L21.4481 8.90487L21.4636 8.89074L21.4777 8.87802L21.4932 8.86388L21.5073 8.84974L21.5214 8.83561L21.5355 8.82006L21.5497 8.80593L21.5638 8.79179L21.5779 8.77766L21.592 8.76211L21.6047 8.74797L21.6188 8.73384L21.6329 8.71829L21.6456 8.70274C21.6498 8.6985 21.654 8.69285 21.6583 8.68861C21.6625 8.68295 21.6667 8.67871 21.671 8.67306L21.6837 8.65751L21.6964 8.64196L21.7091 8.62641L21.7218 8.61228L21.733 8.59673L21.7457 8.57977C21.7503 8.5752 21.7541 8.56995 21.757 8.56422L21.7697 8.54867L21.781 8.53312C21.7843 8.52715 21.788 8.52148 21.7923 8.51616L21.8036 8.50061L21.8135 8.48365L21.8247 8.4681C21.8285 8.46277 21.8319 8.45709 21.8346 8.45114L21.8459 8.43418L21.8558 8.41721L21.8656 8.40025C21.8685 8.3946 21.8727 8.38894 21.8755 8.38329C21.8783 8.37734 21.8816 8.37166 21.8854 8.36633L21.8939 8.34936C21.8977 8.34403 21.901 8.33835 21.9037 8.3324L21.9122 8.31402L21.9207 8.29706L21.9291 8.27869C21.9319 8.27303 21.9348 8.26738 21.9376 8.26031C21.9404 8.25466 21.9432 8.249 21.9461 8.24194C21.9478 8.23605 21.9502 8.23036 21.9531 8.22497C21.9559 8.21791 21.9573 8.21225 21.9602 8.20519C21.9634 8.19942 21.9657 8.19323 21.9672 8.18681L21.9743 8.16844C22.1196 7.75711 21.9686 7.4631 21.8544 7.3783C22.0699 7.44373 22.2509 7.59187 22.3579 7.79045C22.465 7.98902 22.4893 8.22193 22.4257 8.43841L22.42 8.4582C22.4188 8.46451 22.4169 8.47067 22.4144 8.47658C22.413 8.48364 22.4102 8.4893 22.4088 8.49636L22.4017 8.51474C22.4 8.52154 22.3976 8.52817 22.3946 8.53453C22.3932 8.54018 22.3904 8.54584 22.389 8.5529L22.3805 8.57128C22.3788 8.57763 22.3764 8.58378 22.3735 8.58965C22.3703 8.59542 22.3679 8.60161 22.3664 8.60803C22.3636 8.61368 22.3608 8.61934 22.358 8.62641L22.3495 8.64337C22.3467 8.64902 22.3439 8.65609 22.341 8.66174L22.3326 8.67871C22.3298 8.68436 22.3255 8.69001 22.3227 8.69708L22.3142 8.71404C22.3104 8.71938 22.3071 8.72506 22.3044 8.73101C22.3015 8.73666 22.2973 8.74231 22.2945 8.74797L22.2846 8.76493C22.2819 8.77088 22.2786 8.77656 22.2747 8.78189C22.2719 8.78755 22.2677 8.7932 22.2649 8.79886L22.2536 8.81582C22.25 8.82079 22.2467 8.82599 22.2437 8.83137L22.2324 8.84833C22.2295 8.85406 22.2257 8.85931 22.2211 8.86388L22.2098 8.88084C22.2066 8.88635 22.2028 8.89155 22.1986 8.89639L22.1873 8.91194L22.176 8.9289L22.1647 8.94445C22.1605 8.9501 22.1562 8.95434 22.152 8.96C22.1478 8.96565 22.1435 8.96989 22.1393 8.97555L22.128 8.99109L22.1153 9.00664C22.1108 9.01154 22.1065 9.01673 22.1026 9.02219C22.0984 9.02643 22.0942 9.03209 22.0899 9.03633L22.0772 9.05187L22.0631 9.06742C22.0589 9.07166 22.0547 9.07732 22.0504 9.08156C22.0462 9.08721 22.042 9.09145 22.0377 9.09711L22.0236 9.11124L22.0095 9.12679C22.0053 9.13103 22.0011 9.13668 21.9968 9.14092C21.9926 9.14658 21.987 9.15082 21.9827 9.15647L21.9686 9.17061L21.9545 9.18474C21.9502 9.1898 21.9455 9.19453 21.9404 9.19888L21.9263 9.21301L21.9122 9.22715L21.8967 9.24128L21.8826 9.25542L21.8685 9.26955L21.8529 9.28369L21.8374 9.29782L21.8219 9.31196C21.8169 9.31631 21.8121 9.32103 21.8078 9.32609L21.7923 9.33881L21.7768 9.35295L21.7613 9.36567L21.7457 9.3798C21.7402 9.38412 21.735 9.38885 21.7302 9.39394L21.7147 9.40666L21.6978 9.41938L21.6823 9.43352L21.6653 9.44624C21.6611 9.45048 21.6555 9.45472 21.6498 9.46038L21.6329 9.4731L21.6174 9.48582L21.6004 9.49854L21.5835 9.51126C21.5779 9.5155 21.5736 9.52116 21.568 9.5254L21.5511 9.53812L21.5341 9.55084L21.5172 9.56356L21.5003 9.57629L21.4833 9.58901L21.465 9.60173L21.4481 9.61304L21.4312 9.62576L21.4128 9.63848L21.3959 9.6512L21.379 9.66392L21.3606 9.67523L21.3423 9.68796L21.3253 9.70068L21.307 9.71198L21.2887 9.72471L21.2717 9.73601L21.2534 9.74874L21.2351 9.76004L21.2167 9.77277L21.1984 9.78407L21.1801 9.7968L21.1617 9.8081L21.1434 9.81941L21.1236 9.83213L21.1053 9.84344L21.0869 9.85475L21.0686 9.86606L21.0489 9.87737L21.0305 9.89009L21.0108 9.9014L20.9924 9.9127L20.9727 9.92401L20.9543 9.93532L20.9346 9.94663L20.9148 9.95793L20.8951 9.96924L20.8768 9.98055L20.857 9.99186L20.8373 10.0032C20.8316 10.006 20.8246 10.0102 20.8175 10.0145L20.7978 10.0258L20.778 10.0357L20.7583 10.047L20.7385 10.0583L20.7188 10.0696L20.699 10.0795L20.6793 10.0908L20.6581 10.1021L20.6384 10.112L20.6186 10.1233L20.5974 10.1346L20.5777 10.1445L20.5565 10.1558L20.5368 10.1657L20.5156 10.177L20.4959 10.1869L20.4747 10.1982L20.455 10.2081L20.4338 10.2194L20.4126 10.2293L20.3929 10.2392L20.3717 10.2505L20.3506 10.2604L20.3294 10.2717L20.3082 10.2816L20.2871 10.2915L20.2659 10.3014L20.2448 10.3127L20.2236 10.3226L20.2024 10.3325L20.1813 10.3424L20.1601 10.3523L20.139 10.3622L20.1178 10.3735L20.0952 10.3834L20.0741 10.3933L20.0529 10.4032L20.0318 10.4131L20.0092 10.423L20.0078 10.4244L19.988 10.4329L19.9654 10.4428L19.9443 10.4527L19.9217 10.4625L19.9006 10.4724L19.878 10.4823L19.8568 10.4908L19.8343 10.5007L19.8131 10.5106L19.7905 10.5205L19.768 10.5304L19.7454 10.5389L19.7228 10.5488L19.7016 10.5587L19.6791 10.5686L19.6565 10.577L19.6339 10.5869L19.6114 10.5954L19.5888 10.6053L19.5662 10.6152L19.5422 10.6237L19.5197 10.6336L19.4971 10.6421L19.4731 10.6505L19.4505 10.6604L19.428 10.6689L19.404 10.6788L19.3814 10.6873L19.3574 10.6958L19.3349 10.7057L19.3109 10.7142L19.2869 10.7226L19.2643 10.7311L19.2404 10.7396L19.2164 10.7495L19.1924 10.758L19.1684 10.7665L19.1444 10.7749L19.1205 10.7834L19.0965 10.7919L19.0725 10.8004L19.0471 10.8089L19.0231 10.8159L18.9991 10.8244L18.9752 10.8329L18.9498 10.8414L18.9244 10.8484L18.9004 10.8569L18.875 10.8654L18.851 10.8725L18.8256 10.881L18.8002 10.888L18.7748 10.8965L18.7494 10.9036L18.724 10.912L18.6987 10.9191L18.6719 10.9262L18.6465 10.9347L18.6211 10.9417L18.5943 10.9488L18.5689 10.9559L18.5421 10.9629L18.5153 10.97L18.4885 10.9771L18.4631 10.9841L18.4363 10.9912L18.4081 10.9983L18.3813 11.0039L18.3544 11.011L18.3276 11.0181L18.2994 11.0237L18.2712 11.0308L18.2444 11.0364L18.2162 11.0435L18.188 11.0492L18.1598 11.0548L18.1316 11.0605L18.1033 11.0661L18.0737 11.0718L18.0455 11.0774L18.0159 11.0831C18.006 11.0845 17.9961 11.0873 17.9863 11.0887L17.9566 11.0944L17.927 11.0986L17.8974 11.1043L17.8678 11.1085L17.8367 11.1142L17.8057 11.1184L17.7747 11.1227L17.745 11.1269C17.7337 11.1283 17.7239 11.1297 17.7126 11.1311L17.6815 11.1354C17.6707 11.1356 17.6598 11.1365 17.6491 11.1382L17.6167 11.1424C17.6054 11.1439 17.5955 11.1439 17.5842 11.1453C17.5735 11.1469 17.5626 11.1478 17.5518 11.1481L17.5179 11.1523C17.5066 11.1523 17.4953 11.1538 17.4841 11.1538C17.4728 11.1554 17.4615 11.1563 17.4502 11.1566L17.4163 11.1594C17.4046 11.1606 17.3928 11.161 17.3811 11.1608C17.3698 11.1622 17.3571 11.1622 17.3458 11.1637C17.334 11.1634 17.3223 11.1639 17.3105 11.1651L17.2739 11.1665H17.2372C17.225 11.1676 17.2127 11.1681 17.2005 11.1679C16.0593 11.1792 15.55 10.676 15.684 10.2618C15.686 10.2556 15.6884 10.2494 15.6911 10.2435C15.6928 10.2371 15.6952 10.231 15.6981 10.2251C15.701 10.2194 15.7038 10.2138 15.7066 10.2067L15.7151 10.1898C15.7217 10.1784 15.7282 10.1671 15.7348 10.1558C15.7376 10.1502 15.7419 10.1445 15.7447 10.1389C15.7489 10.134 15.7527 10.1288 15.756 10.1233C15.7602 10.1177 15.7644 10.1134 15.7687 10.1078C15.7697 10.1049 15.7717 10.1024 15.7743 10.1007C15.7732 10.1034 15.7727 10.1063 15.7729 10.1092L15.7687 10.1304C15.7673 10.1375 15.7673 10.1445 15.7659 10.1516C15.7647 10.1586 15.7642 10.1657 15.7644 10.1728C15.7633 10.1803 15.7628 10.1878 15.763 10.1954V10.218C15.7644 10.2265 15.7644 10.235 15.7659 10.2421C15.7661 10.2506 15.767 10.2591 15.7687 10.2675C15.7715 10.2774 15.7729 10.2859 15.7757 10.2944C15.7786 10.3043 15.7814 10.3127 15.7842 10.3226C15.8449 10.4852 16.0325 10.5869 16.3076 10.635C16.3245 10.6378 16.3428 10.6407 16.3597 10.6435C16.3767 10.6463 16.3922 10.6477 16.4091 10.6506L16.4557 10.6548C16.4712 10.6562 16.4867 10.6576 16.5008 10.659C16.5149 10.6605 16.5304 10.6605 16.5445 10.6619C16.5587 10.6633 16.5728 10.6633 16.5869 10.6647C16.5996 10.6647 16.6137 10.6661 16.6278 10.6661C16.641 10.6659 16.6541 10.6663 16.6673 10.6675H16.821L16.8577 10.6661L16.893 10.6647L16.9282 10.6633L16.9635 10.6605L16.9988 10.659L17.0326 10.6562L17.0665 10.6534L17.1004 10.652L17.1342 10.6477L17.1667 10.6449L17.2005 10.6421L17.233 10.6392L17.264 10.635L17.2964 10.6308L17.3289 10.6265L17.3599 10.6237L17.391 10.6195L17.422 10.6152L17.453 10.611L17.4841 10.6053L17.5137 10.6011L17.5447 10.5968L17.5743 10.5912L17.604 10.5869L17.635 10.5813L17.6646 10.5756L17.6928 10.5714L17.7225 10.5657L17.7521 10.5601L17.7803 10.5544L17.8099 10.5488L17.8381 10.5431L17.8678 10.5375L17.896 10.5318L17.9242 10.5262L17.9524 10.5191L17.9806 10.5134L18.0074 10.5078L18.0356 10.5007L18.0639 10.4951L18.0907 10.488L18.1189 10.4823L18.1457 10.4753L18.1739 10.4696L18.2007 10.4626L18.2275 10.4555L18.2543 10.4484L18.2811 10.4428L18.3079 10.4357L18.3347 10.4286L18.3615 10.4216L18.3883 10.4145L18.4137 10.4074L18.4405 10.4004L18.4673 10.3933L18.4927 10.3862L18.5195 10.3778L18.5449 10.3707L18.5703 10.3636L18.5957 10.3565L18.6225 10.3481L18.6295 10.3467L18.6493 10.341L18.6761 10.3353L18.7029 10.3283L18.7297 10.3212L18.7565 10.3141L18.7833 10.3071L18.8101 10.3L18.8355 10.2929L18.8609 10.2859L18.8877 10.2788L18.9131 10.2703L18.9385 10.2633L18.9639 10.2548L18.9893 10.2477L19.0147 10.2392L19.0386 10.2322L19.064 10.2237L19.088 10.2152L19.1134 10.2067Z" fill="#0063DC"/>
<defs>
<linearGradient id="paint0_linear_1551_39" x1="9.5114" y1="13.6397" x2="16.5918" y2="3.32668" gradientUnits="userSpaceOnUse">
<stop stop-color="#0063DC"/>
<stop offset="1" stop-color="#00CCFF"/>
</linearGradient>
</defs>
</svg>
